<?xml version="1.0" standalone="no"?>
<!DOCTYPE svg PUBLIC "-//W3C//DTD SVG 20010904//EN"
 "http://www.w3.org/TR/2001/REC-SVG-20010904/DTD/svg10.dtd">
<svg version="1.0" xmlns="http://www.w3.org/2000/svg"
 width="512.000000pt" height="512.000000pt" viewBox="0 0 512.000000 512.000000"
 preserveAspectRatio="xMidYMid meet">

<g transform="translate(0.000000,512.000000) scale(0.100000,-0.100000)"
fill="#000000" stroke="none">
<path d="M2450 5096 c-255 -79 -331 -101 -473 -136 -371 -92 -793 -143 -1292
-157 -233 -6 -240 -7 -263 -30 l-23 -23 4 -1068 c4 -1173 3 -1146 68 -1447
221 -1011 956 -1843 1937 -2191 68 -24 136 -44 152 -44 16 0 84 20 152 44 994
353 1732 1198 1943 2225 60 288 58 256 62 1413 l4 1068 -23 23 c-24 23 -28 24
-288 30 -591 14 -1160 105 -1695 273 -151 47 -173 49 -265 20z m260 -187 c526
-158 1070 -246 1655 -267 l190 -7 0 -1005 c0 -996 -1 -1006 -23 -1150 -101
-645 -378 -1189 -829 -1631 -307 -302 -651 -517 -1045 -654 l-98 -34 -97 34
c-414 144 -770 371 -1089 697 -216 219 -380 450 -514 723 -123 249 -194 456
-244 713 -51 257 -51 263 -51 1317 l0 990 80 2 c652 18 1237 109 1780 277 61
19 119 35 130 35 12 1 81 -17 155 -40z"/>
<path d="M2440 4669 c-414 -129 -960 -225 -1469 -258 -119 -7 -125 -9 -148
-36 l-24 -27 4 -862 c3 -820 4 -867 24 -991 92 -559 327 -1033 708 -1424 150
-154 280 -262 450 -373 130 -86 349 -197 488 -249 l87 -32 88 32 c217 81 495
239 687 391 105 83 289 263 380 371 302 360 498 796 578 1284 20 124 21 171
24 990 l4 861 -21 27 c-25 31 -31 32 -255 47 -447 29 -821 95 -1300 230 -190
53 -194 53 -305 19z m210 -160 c105 -33 406 -106 566 -138 264 -53 544 -90
867 -117 l78 -6 -4 -801 c-4 -856 -4 -852 -57 -1102 -46 -212 -151 -481 -266
-681 -54 -95 -157 -248 -206 -307 l-23 -28 -80 61 c-166 128 -376 242 -552
299 -102 34 -235 61 -294 61 l-39 0 0 405 0 405 216 0 c176 0 234 4 314 20
188 38 341 121 475 255 188 188 275 411 275 707 0 121 -2 136 -20 156 -11 12
-32 25 -45 28 -14 3 -152 4 -307 2 -309 -5 -355 -12 -507 -76 -147 -62 -310
-197 -399 -331 -34 -51 -43 -60 -48 -45 -96 276 -302 490 -561 584 -140 50
-225 60 -520 60 l-264 0 -26 -26 -25 -26 5 -171 c4 -132 10 -190 27 -252 88
-325 338 -574 665 -666 70 -19 111 -23 333 -27 l252 -4 0 -499 0 -499 -39 0
c-59 0 -191 -27 -294 -61 -179 -58 -393 -175 -572 -313 l-60 -46 -23 28 c-47
55 -151 210 -206 306 -115 200 -220 469 -266 681 -54 251 -53 245 -57 1102
l-4 801 78 7 c337 27 606 63 868 116 165 33 466 107 560 137 78 26 106 26 185
1z m-793 -765 c292 -60 524 -278 598 -563 9 -35 14 -65 12 -67 -2 -2 -20 19
-41 46 -60 78 -218 223 -298 273 -97 61 -193 96 -281 103 -68 6 -73 5 -96 -20
-51 -55 -13 -136 64 -136 91 0 229 -69 350 -176 59 -51 188 -201 228 -264 l20
-32 -209 5 c-240 5 -279 12 -424 84 -137 67 -266 196 -333 333 -59 121 -77
188 -84 323 l-6 107 212 0 c154 0 233 -4 288 -16z m1900 -281 c-11 -215 -77
-363 -227 -513 -72 -72 -114 -105 -175 -137 -139 -73 -200 -85 -437 -90 -115
-3 -208 -2 -208 2 0 15 139 184 207 252 127 126 252 198 363 210 77 8 113 34
113 81 0 50 -36 82 -93 82 -178 0 -391 -130 -592 -363 -32 -37 -58 -64 -58
-60 0 33 49 172 83 238 54 104 191 245 290 300 159 88 235 103 521 104 l219 1
-6 -107z m-967 -1888 c114 -27 222 -66 331 -121 103 -51 280 -164 348 -221
l34 -29 -100 -93 c-229 -211 -487 -379 -748 -487 l-90 -37 -50 18 c-102 35
-336 157 -459 239 -145 97 -190 133 -335 265 l-103 95 33 29 c66 55 243 169
341 218 149 75 285 120 423 139 83 12 296 3 375 -15z"/>
</g>
</svg>
