<svg xmlns="http://www.w3.org/2000/svg" width="40.05" height="19.156" viewBox="0 0 40.05 19.156">
  <g id="Group_739" data-name="Group 739" transform="translate(0 0.001)">
    <path id="Path_409" data-name="Path 409" d="M26.543,15.511a13.09,13.09,0,0,0,.6,1.286,4.541,4.541,0,0,0,4.343,2.343A4.382,4.382,0,0,0,35.6,16.323a1.159,1.159,0,0,1,1.322-.827c2.14.023,3.106-.912,3.12-2.935.008-1.167.016-2.335,0-3.5a2.46,2.46,0,0,0-1.849-2.5c-1.142-.393-2.319-.7-3.435-1.149a3.453,3.453,0,0,1-1.368-1.021c-.771-.98-1.449-2.031-2.137-3.069A2.776,2.776,0,0,0,28.806.005q-6.227-.012-12.455,0a3.108,3.108,0,0,0-2.394,1.071C12.844,2.295,11.718,3.5,10.536,4.66a2.739,2.739,0,0,1-1.372.7c-2.224.375-4.464.666-6.7,1a2.5,2.5,0,0,0-2.45,2.7c-.021,1.265-.024,2.53,0,3.794a2.514,2.514,0,0,0,2.8,2.644,1.289,1.289,0,0,1,1.46.932A4.493,4.493,0,0,0,8.66,19.152a4.452,4.452,0,0,0,4.228-2.811A1.172,1.172,0,0,1,14.2,15.5c4.115.03,8.23.015,12.342.015M3.9,13.739c-2.047.138-2.155.045-2.156-1.773q0-1.119,0-2.237c0-1.5.088-1.583,1.59-1.8,2.1-.3,4.214-.547,6.291-.96a4.709,4.709,0,0,0,2.145-1.11c1.218-1.116,2.267-2.4,3.447-3.556a2.082,2.082,0,0,1,1.287-.569q6.023-.065,12.047.005a1.941,1.941,0,0,1,1.3.684c.814,1.03,1.442,2.2,2.276,3.209a4.848,4.848,0,0,0,1.79,1.306c1.135.484,2.369.747,3.52,1.2a1.424,1.424,0,0,1,.823.923,23.4,23.4,0,0,1,0,3.787,1.306,1.306,0,0,1-.907.881c-.545.048-1.3.454-1.64-.557a4.564,4.564,0,0,0-4.433-3.095,4.623,4.623,0,0,0-4.418,2.988.942.942,0,0,1-1.062.736q-5.871-.04-11.743,0a.942.942,0,0,1-1.073-.721,4.776,4.776,0,0,0-9.074.655m4.614-1.933a2.919,2.919,0,0,1,3.014,2.8,2.966,2.966,0,0,1-5.923.09,2.9,2.9,0,0,1,2.91-2.887m22.752,0a2.88,2.88,0,0,1,2.94,2.849,2.92,2.92,0,0,1-2.906,2.8,2.952,2.952,0,0,1-3-2.811,2.921,2.921,0,0,1,2.97-2.835" transform="translate(0 0)" fill="#5d5c5c"/>
  </g>
</svg>
