<svg xmlns="http://www.w3.org/2000/svg" xmlns:xlink="http://www.w3.org/1999/xlink" width="40" height="39.958" viewBox="0 0 40 39.958">
  <defs>
    <clipPath id="clip-path">
      <rect id="Rectangle_213" data-name="Rectangle 213" width="40" height="39.958" fill="#615e5e"/>
    </clipPath>
  </defs>
  <g id="Group_738" data-name="Group 738" transform="translate(969 -194)">
    <g id="Group_553" data-name="Group 553" transform="translate(-969 194)" clip-path="url(#clip-path)">
      <path id="Path_345" data-name="Path 345" d="M4.691,20.98a3.69,3.69,0,0,1-1.907.062A3.413,3.413,0,0,1,.121,18.425a3.379,3.379,0,0,1,1.15-3.576Q8,9.119,14.749,3.418,16.2,2.185,17.659.952a3.555,3.555,0,0,1,4.857.014q2.712,2.306,5.422,4.615c.069.059.141.114.256.207v-.64c0-.517,0-1.034,0-1.551a1.216,1.216,0,0,1,1.245-1.264q2.314-.016,4.629,0a1.224,1.224,0,0,1,1.259,1.329q0,4.006,0,8.011a.481.481,0,0,0,.186.411q1.629,1.382,3.246,2.777a3.576,3.576,0,0,1-1.038,6.044,3.639,3.639,0,0,1-2.39.072v.308q0,8.647,0,17.294a1.244,1.244,0,0,1-.958,1.345,1.707,1.707,0,0,1-.378.032q-13.987,0-27.975,0a1.228,1.228,0,0,1-1.325-1.336q0-8.647,0-17.294V20.98M32.865,37.462V37.1q0-8.788,0-17.575a.6.6,0,0,0-.234-.516q-5.215-4.448-10.419-8.906L20.081,8.283c-.075.06-.142.111-.205.165q-6.267,5.311-12.535,10.62a.453.453,0,0,0-.186.384q.008,8.864,0,17.728c0,.09.008.18.013.282h5.691v-.334q0-4.985,0-9.97a1.233,1.233,0,0,1,1.346-1.342h11.6a1.752,1.752,0,0,1,.354.026,1.246,1.246,0,0,1,1,1.316q0,4.985,0,9.97v.334ZM3.631,18.654a1.184,1.184,0,0,0,.774-.352q7.358-6.242,14.721-12.478a1.274,1.274,0,0,1,1.922.013L30.3,13.759q2.665,2.282,5.327,4.568a1.127,1.127,0,0,0,1.1.285,1.024,1.024,0,0,0,.759-.812,1.1,1.1,0,0,0-.427-1.124Q30.517,11.085,23.979,5.487,22.4,4.14,20.829,2.795a1.075,1.075,0,0,0-1.5,0c-.085.07-.169.142-.253.213L5.867,14.2Q4.384,15.46,2.9,16.718a1.08,1.08,0,0,0-.339,1.238,1.1,1.1,0,0,0,1.071.7m21.048,9.654H15.342v9.148h9.337ZM32.853,4.825H30.69a.614.614,0,0,0-.023.111c0,.95-.006,1.9,0,2.848a.421.421,0,0,0,.147.268c.588.512,1.185,1.015,1.779,1.52.074.063.151.123.256.209Z" transform="translate(0 0)" fill="#615e5e"/>
      <path id="Path_346" data-name="Path 346" d="M303.5,275.172q1.728,0,3.457,0a1.241,1.241,0,0,1,1.341,1.35q0,3.393,0,6.787a1.242,1.242,0,0,1-1.331,1.337q-3.5,0-6.99,0a1.221,1.221,0,0,1-1.309-1.3q-.009-3.432,0-6.863a1.221,1.221,0,0,1,1.324-1.309q1.754,0,3.508,0m2.313,2.5h-4.664v4.472h4.664Z" transform="translate(-283.466 -261.173)" fill="#615e5e"/>
    </g>
    <g id="Group_737" data-name="Group 737" transform="translate(-969 194)" clip-path="url(#clip-path)">
      <path id="Path_407" data-name="Path 407" d="M4.691,20.98a3.69,3.69,0,0,1-1.907.062A3.413,3.413,0,0,1,.121,18.425a3.379,3.379,0,0,1,1.15-3.576Q8,9.119,14.749,3.418,16.2,2.185,17.659.952a3.555,3.555,0,0,1,4.857.014q2.712,2.306,5.422,4.615c.069.059.141.114.256.207v-.64c0-.517,0-1.034,0-1.551a1.216,1.216,0,0,1,1.245-1.264q2.314-.016,4.629,0a1.224,1.224,0,0,1,1.259,1.329q0,4.006,0,8.011a.481.481,0,0,0,.186.411q1.629,1.382,3.246,2.777a3.576,3.576,0,0,1-1.038,6.044,3.639,3.639,0,0,1-2.39.072v.308q0,8.647,0,17.294a1.244,1.244,0,0,1-.958,1.345,1.707,1.707,0,0,1-.378.032q-13.987,0-27.975,0a1.228,1.228,0,0,1-1.325-1.336q0-8.647,0-17.294V20.98M32.865,37.462V37.1q0-8.788,0-17.575a.6.6,0,0,0-.234-.516q-5.215-4.448-10.419-8.906L20.081,8.283c-.075.06-.142.111-.205.165q-6.267,5.311-12.535,10.62a.453.453,0,0,0-.186.384q.008,8.864,0,17.728c0,.09.008.18.013.282h5.691v-.334q0-4.985,0-9.97a1.233,1.233,0,0,1,1.346-1.342h11.6a1.752,1.752,0,0,1,.354.026,1.246,1.246,0,0,1,1,1.316q0,4.985,0,9.97v.334ZM3.631,18.654a1.184,1.184,0,0,0,.774-.352q7.358-6.242,14.721-12.478a1.274,1.274,0,0,1,1.922.013L30.3,13.759q2.665,2.282,5.327,4.568a1.127,1.127,0,0,0,1.1.285,1.024,1.024,0,0,0,.759-.812,1.1,1.1,0,0,0-.427-1.124Q30.517,11.085,23.979,5.487,22.4,4.14,20.829,2.795a1.075,1.075,0,0,0-1.5,0c-.085.07-.169.142-.253.213L5.867,14.2Q4.384,15.46,2.9,16.718a1.08,1.08,0,0,0-.339,1.238,1.1,1.1,0,0,0,1.071.7m21.048,9.654H15.342v9.148h9.337ZM32.853,4.825H30.69a.614.614,0,0,0-.023.111c0,.95-.006,1.9,0,2.848a.421.421,0,0,0,.147.268c.588.512,1.185,1.015,1.779,1.52.074.063.151.123.256.209Z" transform="translate(0 0)" fill="#615e5e"/>
      <path id="Path_408" data-name="Path 408" d="M303.5,275.172q1.728,0,3.457,0a1.241,1.241,0,0,1,1.341,1.35q0,3.393,0,6.787a1.242,1.242,0,0,1-1.331,1.337q-3.5,0-6.99,0a1.221,1.221,0,0,1-1.309-1.3q-.009-3.432,0-6.863a1.221,1.221,0,0,1,1.324-1.309q1.754,0,3.508,0m2.313,2.5h-4.664v4.472h4.664Z" transform="translate(-283.466 -261.173)" fill="#615e5e"/>
    </g>
  </g>
</svg>
