<?xml version="1.0" standalone="no"?>
<!DOCTYPE svg PUBLIC "-//W3C//DTD SVG 20010904//EN"
 "http://www.w3.org/TR/2001/REC-SVG-20010904/DTD/svg10.dtd">
<svg version="1.0" xmlns="http://www.w3.org/2000/svg"
 width="512.000000pt" height="512.000000pt" viewBox="0 0 512.000000 512.000000"
 preserveAspectRatio="xMidYMid meet">

<g transform="translate(0.000000,512.000000) scale(0.100000,-0.100000)"
fill="#000000" stroke="none">
<path d="M1520 4947 c-19 -6 -58 -34 -85 -62 -52 -51 -75 -102 -75 -164 0 -21
-9 -41 -25 -56 -23 -24 -31 -25 -136 -25 -144 0 -181 -11 -244 -75 -71 -70
-91 -145 -63 -239 16 -55 99 -138 154 -154 59 -17 1369 -17 1428 0 55 16 138
99 154 154 28 94 8 169 -63 239 -63 64 -100 75 -244 75 -105 0 -113 1 -136 25
-16 15 -25 35 -25 56 0 91 -81 202 -166 227 -53 15 -424 15 -474 -1z"/>
<path d="M466 4469 c-62 -15 -153 -68 -197 -116 -22 -24 -55 -74 -72 -111
l-32 -67 0 -1696 0 -1695 37 -76 c45 -91 103 -147 196 -191 l67 -32 1126 -3
1126 -2 26 21 c38 29 38 89 1 118 -27 21 -29 21 -1122 21 -830 0 -1105 3
-1136 12 -55 16 -138 99 -154 154 -17 60 -17 3288 0 3348 8 26 31 60 63 91 59
59 102 75 204 75 63 0 75 3 96 25 16 15 25 36 25 55 0 19 -9 40 -25 55 -22 23
-32 25 -107 24 -46 -1 -100 -5 -122 -10z"/>
<path d="M2826 4457 c-34 -34 -34 -79 -1 -112 21 -22 33 -25 96 -25 39 0 90
-5 113 -12 55 -16 138 -99 154 -154 9 -31 12 -202 12 -652 l0 -611 23 -27 c33
-38 81 -37 114 0 l24 28 -3 641 -3 642 -32 67 c-43 92 -100 151 -190 195 -67
33 -83 37 -177 41 -102 4 -105 4 -130 -21z"/>
<path d="M665 3735 l-25 -24 0 -271 0 -271 25 -24 24 -25 271 0 271 0 24 25
25 24 0 271 0 271 -25 24 -24 25 -271 0 -271 0 -24 -25z"/>
<path d="M1625 3655 c-16 -15 -25 -36 -25 -55 0 -19 9 -40 25 -55 l24 -25 591
0 591 0 24 25 c16 15 25 36 25 55 0 19 -9 40 -25 55 l-24 25 -591 0 -591 0
-24 -25z"/>
<path d="M1625 3335 c-16 -15 -25 -36 -25 -55 0 -19 9 -40 25 -55 l24 -25 271
0 271 0 24 25 c16 15 25 36 25 55 0 19 -9 40 -25 55 l-24 25 -271 0 -271 0
-24 -25z"/>
<path d="M665 2695 l-25 -24 0 -271 0 -271 25 -24 24 -25 271 0 271 0 24 25
25 24 0 271 0 271 -25 24 -24 25 -271 0 -271 0 -24 -25z"/>
<path d="M2855 2703 c-260 -55 -474 -241 -564 -490 -41 -113 -55 -209 -47
-333 28 -472 369 -980 994 -1477 162 -130 332 -243 362 -243 31 0 204 116 366
246 622 497 963 1003 990 1474 25 406 -233 746 -626 826 -232 46 -442 -27
-639 -223 l-93 -93 -61 66 c-196 214 -434 300 -682 247z m633 -800 c13 -11 74
-152 152 -348 73 -181 133 -331 134 -332 1 -1 39 61 85 138 46 77 92 144 102
149 10 6 101 10 204 10 184 0 186 0 210 -25 16 -15 25 -36 25 -55 0 -19 -9
-40 -25 -55 -23 -24 -28 -25 -177 -25 l-153 0 -114 -191 c-63 -104 -122 -194
-132 -200 -25 -13 -61 -11 -85 5 -12 9 -65 127 -144 325 -68 171 -127 311
-130 311 -4 0 -26 -50 -50 -111 -25 -62 -53 -117 -64 -125 -16 -11 -67 -14
-249 -14 l-228 0 -24 25 c-33 32 -33 78 0 110 24 25 26 25 213 25 l189 0 73
186 c45 113 82 191 94 200 28 19 70 18 94 -3z"/>
<path d="M1625 2615 c-16 -15 -25 -36 -25 -55 0 -19 9 -40 25 -55 l24 -25 293
0 c309 1 312 1 337 48 16 30 7 65 -21 92 -21 19 -34 20 -315 20 l-294 0 -24
-25z"/>
<path d="M1625 2295 c-16 -15 -25 -36 -25 -55 0 -19 9 -40 25 -55 24 -25 25
-25 233 -25 197 0 211 1 236 21 20 16 26 29 26 59 0 30 -6 43 -26 59 -25 20
-39 21 -236 21 -208 0 -209 0 -233 -25z"/>
<path d="M665 1655 l-25 -24 0 -271 0 -271 25 -24 24 -25 271 0 271 0 24 25
25 24 0 271 0 271 -25 24 -24 25 -271 0 -271 0 -24 -25z"/>
<path d="M1625 1575 c-16 -15 -25 -36 -25 -55 0 -19 9 -40 25 -55 l24 -25 221
0 222 0 29 29 c37 37 37 65 0 102 l-29 29 -222 0 -221 0 -24 -25z"/>
<path d="M1625 1255 c-16 -15 -25 -36 -25 -55 0 -19 9 -40 25 -55 l24 -25 271
0 271 0 24 25 c16 15 25 36 25 55 0 19 -9 40 -25 55 l-24 25 -271 0 -271 0
-24 -25z"/>
</g>
</svg>
