<svg id="Group_741" data-name="Group 741" xmlns="http://www.w3.org/2000/svg" xmlns:xlink="http://www.w3.org/1999/xlink" width="76.93" height="50" viewBox="0 0 76.93 50">
  <defs>
    <clipPath id="clip-path">
      <rect id="Rectangle_158" data-name="Rectangle 158" width="76.93" height="50" fill="#d9000d"/>
    </clipPath>
  </defs>
  <g id="Group_519" data-name="Group 519" clip-path="url(#clip-path)">
    <path id="Path_328" data-name="Path 328" d="M0,111.115c1.445-4.613,3.881-8.765,5.765-13.173C6.21,96.9,6.7,95.88,7.2,94.869a4.964,4.964,0,0,1,4.648-2.994q8.868-.058,17.737,0a5.133,5.133,0,0,1,4.841,3.105c2.156,4.519,4.228,9.081,6.326,13.629a9.493,9.493,0,0,1,.834,4.061c-.012,4.244,0,8.488-.006,12.732,0,1.25-.292,1.537-1.521,1.54q-2.067,0-4.134,0c-1.17,0-1.445-.3-1.452-1.53,0-.9,0-1.807,0-2.779H7.106c0,.959,0,1.909,0,2.859-.007,1.125-.3,1.442-1.371,1.448-1.453.008-2.908.05-4.358-.026A4.486,4.486,0,0,1,0,126.337V111.115m35.672-3.089c-.132-.319-.229-.578-.343-.828-1.188-2.621-2.481-5.2-3.538-7.875a4.388,4.388,0,0,0-4.751-3.114c-4.357.124-8.72.082-13.08.014a3.759,3.759,0,0,0-3.9,2.493c-1.27,2.9-2.649,5.739-3.98,8.605-.094.2-.166.416-.28.705Zm-32.209,7a3.3,3.3,0,0,0,3.165,3.355,3.384,3.384,0,0,0,3.247-3.385A3.293,3.293,0,0,0,6.6,111.751a3.2,3.2,0,0,0-3.135,3.272m28.247-.05a3.272,3.272,0,0,0,3.1,3.407,3.329,3.329,0,0,0,3.274-3.335,3.256,3.256,0,0,0-3.208-3.293,3.172,3.172,0,0,0-3.168,3.222" transform="translate(0 -76.957)" fill="#5d5c5c"/>
    <path id="Path_329" data-name="Path 329" d="M248.2,74.882c2.429-.9,3.423-2.674,2.571-4.635-.889-2.049-2.7-2.476-5.1-1.172-.706-1.512-1.433-3.012-2.091-4.544-.088-.206.1-.634.279-.853q4.017-4.878,8.069-9.724c.441-.53.871-1.07,1.326-1.586a5.228,5.228,0,0,1,5.572-1.774q8.293,2.161,16.57,4.391a5.312,5.312,0,0,1,4.027,4.44c.964,5.177,1.924,10.356,2.771,15.553a8.806,8.806,0,0,1-.261,3.358c-.982,4.086-2.063,8.147-3.109,12.217-.309,1.2-.671,1.417-1.845,1.1-1.379-.372-2.76-.738-4.136-1.122-.849-.237-1.1-.659-.893-1.549.224-.95.5-1.886.78-2.917L248.419,79.35l-.222-4.468m29.591-2.146c-.218-1.23-.394-2.272-.59-3.311-.5-2.636-.988-5.274-1.516-7.9a2.643,2.643,0,0,0-1.846-2.063c-.4-.139-.8-.3-1.21-.413-4.315-1.224-8.645-2.4-12.943-3.681a3.772,3.772,0,0,0-4.451,1.419c-1.986,2.465-4.045,4.867-6.071,7.3-.141.169-.264.354-.445.6l29.071,8.056m.5,6.451a3.273,3.273,0,0,0-3.212-3.285,3.113,3.113,0,0,0-3.122,3.4,3.283,3.283,0,0,0,3.174,3.254,3.347,3.347,0,0,0,3.16-3.369" transform="translate(-205.331 -42.22)" fill="#5d5c5c"/>
    <path id="Path_330" data-name="Path 330" d="M234.4,15.454q-.845-6.766-1.686-13.533a7.227,7.227,0,0,1-.038-.93.884.884,0,0,1,.933-.979c.45-.023.9-.01,1.352-.007,1.1.008,1.44.384,1.316,1.538-.177,1.644-.392,3.284-.594,4.925q-.525,4.269-1.055,8.538a3.65,3.65,0,0,1-.107.434l-.12.013" transform="translate(-196.156 0)" fill="#5d5c5c"/>
    <path id="Path_331" data-name="Path 331" d="M193.966,43.786q-2.217-3.009-4.433-6.019c-.559-.76-1.114-1.524-1.671-2.285a.869.869,0,0,1,.239-1.424c.191-.122.372-.261.57-.367.83-.447,1.2-.33,1.575.578.893,2.156,1.762,4.323,2.638,6.486q.6,1.483,1.2,2.969l-.113.063" transform="translate(-158.153 -28.016)" fill="#5d5c5c"/>
    <path id="Path_332" data-name="Path 332" d="M260.521,38.246a3.6,3.6,0,0,1,.1-.349q1.834-4.542,3.673-9.082c.243-.6.568-.828,1.22-.494,1.769.907,1.8.973.611,2.582L260.659,38.3l-.138-.05" transform="translate(-219.635 -23.601)" fill="#5d5c5c"/>
  </g>
</svg>
