<?xml version="1.0" encoding="UTF-8"?>
<!DOCTYPE svg PUBLIC "-//W3C//DTD SVG 1.1//EN" "http://www.w3.org/Graphics/SVG/1.1/DTD/svg11.dtd">
<svg xmlns="http://www.w3.org/2000/svg" version="1.1" width="512px" height="512px" style="shape-rendering:geometricPrecision; text-rendering:geometricPrecision; image-rendering:optimizeQuality; fill-rule:evenodd; clip-rule:evenodd" xmlns:xlink="http://www.w3.org/1999/xlink">
<g><path style="opacity:0.966" fill="#323232" d="M 254.5,50.5 C 257.568,50.5467 260.568,51.0467 263.5,52C 318.167,78.6667 372.833,105.333 427.5,132C 432.196,138.131 432.696,144.631 429,151.5C 423.72,155.755 417.886,156.588 411.5,154C 360.284,128.892 308.95,104.058 257.5,79.5C 205.382,104.725 153.382,130.225 101.5,156C 88.8193,156.985 83.3193,151.152 85,138.5C 85.7922,136.413 86.9588,134.579 88.5,133C 143.802,105.182 199.135,77.6822 254.5,50.5 Z"/></g>
<g><path style="opacity:0.958" fill="#323232" d="M 255.5,105.5 C 262.2,106.513 268.533,108.679 274.5,112C 310.08,129.526 345.747,146.859 381.5,164C 386.345,167.189 389.178,171.689 390,177.5C 390.667,217.5 390.667,257.5 390,297.5C 389.073,305.761 384.573,310.928 376.5,313C 296.833,313.667 217.167,313.667 137.5,313C 128.875,311.375 124.042,306.209 123,297.5C 122.333,257.833 122.333,218.167 123,178.5C 123.638,172.393 126.471,167.56 131.5,164C 172.586,143.62 213.92,124.12 255.5,105.5 Z M 256.5,125.5 C 294.478,143.489 332.478,161.489 370.5,179.5C 371.5,217.828 371.833,256.161 371.5,294.5C 345.5,294.5 319.5,294.5 293.5,294.5C 292.258,280.518 291.091,266.518 290,252.5C 276.251,238.589 263.084,224.256 250.5,209.5C 256.531,190.774 261.864,172.108 266.5,153.5C 250.5,173.833 234.5,194.167 218.5,214.5C 229.622,229.244 240.622,244.078 251.5,259C 243.289,270.588 234.956,282.088 226.5,293.5C 198.508,294.5 170.508,294.833 142.5,294.5C 142.167,256.161 142.5,217.828 143.5,179.5C 181.379,161.725 219.046,143.725 256.5,125.5 Z"/></g>
<g><path style="opacity:0.942" fill="#323232" d="M 35.5,173.5 C 43.2007,173.362 46.3673,177.029 45,184.5C 38.3599,193.974 31.5265,203.307 24.5,212.5C 30.8076,221.308 37.3076,229.975 44,238.5C 46,241.833 46,245.167 44,248.5C 37.3076,257.025 30.8076,265.692 24.5,274.5C 31.5265,283.693 38.3599,293.026 45,302.5C 45.2455,311.407 41.0788,314.407 32.5,311.5C 22.7556,299.664 13.7556,287.331 5.5,274.5C 6.47279,271.221 7.97279,268.221 10,265.5C 16.1104,258.566 21.6104,251.232 26.5,243.5C 21.6104,235.768 16.1104,228.434 10,221.5C 5.00702,216.289 4.67369,210.955 9,205.5C 16.5761,196.013 23.9095,186.346 31,176.5C 32.4087,175.219 33.9087,174.219 35.5,173.5 Z"/></g>
<g><path style="opacity:0.942" fill="#323232" d="M 83.5,173.5 C 91.2007,173.362 94.3673,177.029 93,184.5C 86.3599,193.974 79.5265,203.307 72.5,212.5C 78.8076,221.308 85.3076,229.975 92,238.5C 94,241.833 94,245.167 92,248.5C 85.3076,257.025 78.8076,265.692 72.5,274.5C 79.5265,283.693 86.3599,293.026 93,302.5C 92.8241,312.562 88.1575,315.228 79,310.5C 72.0506,300.549 64.7172,290.883 57,281.5C 53.7782,277.861 53.1115,273.861 55,269.5C 61.7556,260.972 68.2556,252.305 74.5,243.5C 68.2556,234.695 61.7556,226.028 55,217.5C 53.1115,213.139 53.7782,209.139 57,205.5C 63,197.5 69,189.5 75,181.5C 77.2081,177.994 80.0415,175.327 83.5,173.5 Z"/></g>
<g><path style="opacity:0.942" fill="#323232" d="M 423.5,173.5 C 426.747,173.415 429.581,174.415 432,176.5C 439.091,186.346 446.424,196.013 454,205.5C 457.222,209.139 457.888,213.139 456,217.5C 449.244,226.028 442.744,234.695 436.5,243.5C 442.744,252.305 449.244,260.972 456,269.5C 457.888,273.861 457.222,277.861 454,281.5C 446.283,290.883 438.949,300.549 432,310.5C 422.843,315.228 418.176,312.562 418,302.5C 424.64,293.026 431.473,283.693 438.5,274.5C 432.192,265.692 425.692,257.025 419,248.5C 417,245.167 417,241.833 419,238.5C 425.692,229.975 432.192,221.308 438.5,212.5C 431.473,203.307 424.64,193.974 418,184.5C 416.679,179.141 418.513,175.474 423.5,173.5 Z"/></g>
<g><path style="opacity:0.941" fill="#323232" d="M 471.5,173.5 C 474.747,173.415 477.581,174.415 480,176.5C 487.091,186.346 494.424,196.013 502,205.5C 506.326,210.955 505.993,216.289 501,221.5C 494.89,228.434 489.39,235.768 484.5,243.5C 489.39,251.232 494.89,258.566 501,265.5C 505.993,270.711 506.326,276.045 502,281.5C 493.976,291.357 486.143,301.357 478.5,311.5C 469.921,314.407 465.755,311.407 466,302.5C 472.64,293.026 479.473,283.693 486.5,274.5C 480.192,265.692 473.692,257.025 467,248.5C 465,245.167 465,241.833 467,238.5C 473.692,229.975 480.192,221.308 486.5,212.5C 479.473,203.307 472.64,193.974 466,184.5C 464.679,179.141 466.513,175.474 471.5,173.5 Z"/></g>
<g><path style="opacity:0.978" fill="#323232" d="M 80.5,337.5 C 85.2675,337.191 89.9342,337.691 94.5,339C 103.977,343.487 112.644,349.153 120.5,356C 131.714,366.712 142.38,377.879 152.5,389.5C 159.492,395.333 167.158,400.167 175.5,404C 208.149,407.011 240.815,409.845 273.5,412.5C 277.86,412.158 281.86,410.825 285.5,408.5C 286.979,404.116 285.313,401.616 280.5,401C 248.723,398.617 217.057,395.284 185.5,391C 176.958,386.942 175.625,381.275 181.5,374C 188.365,371.133 195.532,369.967 203,370.5C 223.143,372.11 243.31,372.61 263.5,372C 280.401,365.382 297.401,359.049 314.5,353C 339.978,352.228 363.812,358.061 386,370.5C 386.667,371.833 387.333,373.167 388,374.5C 388.667,393.833 388.667,413.167 388,432.5C 385.457,434.354 382.624,435.521 379.5,436C 336.056,443.019 292.722,450.685 249.5,459C 239.487,460.78 229.487,460.78 219.5,459C 195.611,451.593 171.944,443.593 148.5,435C 125.626,409.128 103.126,382.961 81,356.5C 77.0274,351.28 76.0274,345.614 78,339.5C 78.9947,338.934 79.828,338.267 80.5,337.5 Z"/></g>
<g><path style="opacity:0.955" fill="#323232" d="M 402.5,364.5 C 411.839,364.334 421.173,364.5 430.5,365C 432.667,365.833 434.167,367.333 435,369.5C 435.667,390.833 435.667,412.167 435,433.5C 434.167,435.667 432.667,437.167 430.5,438C 421.5,438.667 412.5,438.667 403.5,438C 402.069,437.535 400.903,436.701 400,435.5C 399.333,412.833 399.333,390.167 400,367.5C 401.045,366.627 401.878,365.627 402.5,364.5 Z"/></g>
</svg>
