<?xml version="1.0" standalone="no"?>
<!DOCTYPE svg PUBLIC "-//W3C//DTD SVG 20010904//EN"
 "http://www.w3.org/TR/2001/REC-SVG-20010904/DTD/svg10.dtd">
<svg version="1.0" xmlns="http://www.w3.org/2000/svg"
 width="512.000000pt" height="512.000000pt" viewBox="0 0 512.000000 512.000000"
 preserveAspectRatio="xMidYMid meet">

<g transform="translate(0.000000,512.000000) scale(0.100000,-0.100000)"
fill="#000000" stroke="none">
<path d="M2482 4867 c-44 -14 -115 -78 -138 -124 -11 -24 -20 -71 -24 -126
l-5 -88 -84 -34 c-219 -88 -399 -268 -487 -487 l-33 -83 -88 -5 c-105 -7 -148
-25 -202 -86 -87 -99 -82 -224 14 -319 59 -59 102 -75 204 -75 59 0 73 -3 78
-17 3 -10 21 -53 39 -96 l33 -77 -51 -53 c-58 -60 -98 -136 -98 -188 0 -129
109 -239 237 -241 77 -1 126 21 193 87 l55 55 95 -39 95 -40 5 -88 c7 -105 25
-148 86 -202 100 -88 238 -80 327 19 52 57 67 103 67 199 0 59 3 73 18 78 9 3
53 21 97 39 l80 34 55 -55 c67 -66 116 -88 193 -87 128 2 237 112 237 241 0
52 -40 128 -98 188 l-51 53 33 77 c18 43 36 86 39 96 5 14 19 17 80 17 102 0
157 21 210 80 88 98 90 219 3 317 -52 59 -91 76 -199 82 l-88 6 -33 82 c-44
111 -106 204 -196 293 -104 105 -218 175 -362 223 -15 5 -18 19 -18 78 0 96
-15 142 -67 199 -64 72 -159 97 -251 67z m133 -172 l25 -24 0 -376 0 -375 -80
0 -80 0 0 375 0 376 25 24 c15 16 36 25 55 25 19 0 40 -9 55 -25z m-298 -772
c-2 -2 -102 -2 -221 -1 l-217 3 42 85 c59 119 188 247 309 309 l85 43 3 -218
c1 -119 1 -219 -1 -221z m598 384 c116 -61 267 -234 314 -359 l11 -28 -220 0
-220 0 0 220 0 220 27 -11 c15 -6 55 -25 88 -42z m660 -572 c16 -15 25 -36 25
-55 0 -19 -9 -40 -25 -55 l-24 -25 -991 0 -991 0 -24 25 c-16 15 -25 36 -25
55 0 19 9 40 25 55 l24 25 991 0 991 0 24 -25z m-1490 -346 c17 -28 58 -78 93
-110 218 -205 546 -205 764 0 35 32 77 82 93 110 l30 51 88 0 c48 0 87 -3 87
-6 0 -3 -20 -43 -45 -88 -25 -46 -45 -95 -45 -111 0 -21 19 -47 79 -109 43
-44 82 -91 86 -104 16 -54 -43 -113 -96 -97 -13 4 -60 43 -105 86 -60 58 -90
79 -109 79 -14 0 -58 -18 -98 -39 -40 -22 -106 -49 -147 -61 -112 -33 -120
-45 -120 -186 0 -109 -1 -116 -25 -139 -15 -16 -36 -25 -55 -25 -19 0 -40 9
-55 25 -24 23 -25 30 -25 139 0 141 -8 153 -120 186 -41 12 -107 39 -147 61
-40 21 -84 39 -98 39 -19 0 -49 -21 -109 -79 -45 -43 -92 -82 -105 -86 -53
-16 -112 43 -96 97 4 13 43 60 86 104 60 62 79 88 79 109 0 16 -20 65 -45 111
-25 45 -45 85 -45 88 0 3 39 6 88 6 l87 0 30 -51z m750 4 c-158 -146 -392
-146 -550 0 l-50 46 325 0 325 0 -50 -46z"/>
<path d="M434 3742 c-70 -25 -124 -71 -160 -134 l-29 -53 -2 -750 -3 -750 480
-743 480 -743 0 -140 c0 -135 1 -141 25 -164 l24 -25 1311 0 1311 0 24 25 c24
23 25 29 25 164 l0 140 480 743 480 743 0 731 c0 840 4 801 -85 889 -120 122
-312 108 -416 -29 -42 -55 -59 -104 -59 -168 l0 -44 -72 0 c-87 1 -137 -22
-190 -84 -42 -48 -58 -98 -58 -177 l0 -59 -72 0 c-87 1 -137 -22 -190 -84 -55
-63 -58 -86 -58 -429 l0 -311 -27 0 c-47 0 -100 -19 -146 -53 -25 -18 -246
-214 -492 -437 -246 -223 -450 -405 -455 -405 -6 0 -553 489 -865 775 -90 82
-162 120 -225 120 l-30 0 0 311 c0 343 -3 366 -58 429 -53 62 -103 85 -189 84
l-73 0 0 59 c0 79 -16 129 -58 177 -53 62 -103 85 -189 84 l-73 0 0 56 c-1
179 -196 313 -366 252z m170 -181 l31 -31 5 -585 5 -584 46 -48 c25 -26 220
-239 434 -473 213 -234 400 -437 416 -452 37 -36 81 -37 114 -3 50 49 40 69
-127 252 -259 282 -248 267 -248 340 0 91 63 153 155 153 28 -1 60 -6 71 -13
12 -7 236 -205 498 -442 l476 -430 0 -422 0 -423 -560 0 -560 0 0 108 0 109
-480 743 -480 744 2 712 3 712 25 27 c33 36 57 46 104 41 27 -3 49 -14 70 -35z
m4080 0 l31 -31 3 -713 2 -713 -480 -744 -480 -743 0 -109 0 -108 -560 0 -560
0 0 423 0 422 78 70 c43 39 257 232 476 430 219 198 408 365 420 372 11 7 44
12 71 13 92 0 155 -62 155 -153 0 -73 11 -58 -247 -340 -168 -183 -178 -203
-128 -252 33 -34 77 -33 114 3 16 15 203 218 416 452 214 234 409 447 434 473
l46 48 5 584 5 583 25 27 c33 36 57 46 104 41 27 -3 49 -14 70 -35z m-3749
-306 l25 -24 0 -488 c0 -408 -2 -485 -13 -473 -8 8 -44 47 -80 87 l-67 72 0
401 0 401 25 24 c15 16 36 25 55 25 19 0 40 -9 55 -25z m3360 0 l25 -24 0
-401 0 -401 -67 -72 c-36 -40 -72 -79 -80 -87 -11 -12 -13 65 -13 473 l0 488
25 24 c15 16 36 25 55 25 19 0 40 -9 55 -25z m-3040 -320 l25 -24 0 -328 0
-328 -39 -27 c-34 -24 -51 -45 -108 -134 -9 -15 -12 72 -12 399 l-1 418 25 24
c15 16 36 25 55 25 19 0 40 -9 55 -25z m2720 0 l25 -24 -1 -418 c0 -327 -3
-414 -12 -399 -57 89 -74 110 -108 134 l-39 27 0 328 0 328 25 24 c15 16 36
25 55 25 19 0 40 -9 55 -25z"/>
</g>
</svg>
