<?xml version="1.0" standalone="no"?>
<!DOCTYPE svg PUBLIC "-//W3C//DTD SVG 20010904//EN"
 "http://www.w3.org/TR/2001/REC-SVG-20010904/DTD/svg10.dtd">
<svg version="1.0" xmlns="http://www.w3.org/2000/svg"
 width="512.000000pt" height="512.000000pt" viewBox="0 0 512.000000 512.000000"
 preserveAspectRatio="xMidYMid meet">

<g transform="translate(0.000000,512.000000) scale(0.100000,-0.100000)"
fill="#000000" stroke="none">
<path d="M2427 5105 c-424 -81 -739 -417 -787 -840 -5 -49 -10 -153 -10 -229
0 -131 -1 -141 -24 -170 -59 -78 -82 -171 -65 -263 26 -139 119 -233 265 -266
l57 -13 18 -73 c35 -138 110 -265 209 -354 l50 -45 0 -66 c0 -36 -2 -66 -5
-66 -2 0 -54 -18 -114 -39 l-111 -40 -19 45 c-23 51 -56 69 -105 55 -105 -30
-313 -114 -328 -132 -13 -15 -18 -39 -18 -79 l0 -57 -152 -54 c-310 -110 -425
-232 -482 -514 -53 -260 -196 -1228 -196 -1325 0 -152 68 -290 173 -357 79
-50 107 -53 469 -53 l336 0 7 -62 c5 -45 14 -68 31 -85 l23 -23 521 0 521 0
26 26 c21 22 25 32 20 67 -2 23 -8 50 -12 60 -6 14 -1 17 30 17 30 0 47 -9 87
-45 58 -52 149 -98 226 -114 74 -15 1361 -15 1395 0 14 6 30 21 36 33 9 15 11
251 9 881 -4 964 0 909 -79 1065 -49 98 -112 176 -201 249 -99 81 -197 131
-405 206 l-178 63 3 39 c2 27 -2 46 -15 61 -21 26 -347 152 -392 152 -22 0
-37 -9 -60 -37 l-30 -37 -56 19 -55 19 0 61 0 61 61 59 c108 106 170 214 204
351 l17 72 48 6 c59 8 133 46 183 94 113 110 128 301 32 426 l-35 46 0 174 c0
115 -5 201 -16 256 -70 373 -343 665 -713 761 -102 27 -289 34 -394 14z m364
-174 c269 -69 484 -278 565 -546 22 -75 27 -115 32 -242 l4 -153 -30 0 c-26 0
-31 4 -36 35 -6 28 -39 70 -152 190 -170 182 -173 183 -278 116 -150 -94 -346
-173 -528 -212 -84 -18 -137 -23 -285 -23 -202 -1 -209 -3 -222 -67 -6 -29
-11 -34 -39 -37 l-32 -3 0 78 c1 207 37 362 115 495 125 214 345 358 595 391
66 9 215 -2 291 -22z m376 -1271 c-3 -323 -4 -326 -30 -403 -74 -213 -241
-354 -458 -388 -291 -45 -569 140 -643 427 -13 49 -16 120 -16 348 l0 286 90
0 c254 0 571 87 795 219 l70 41 98 -102 98 -103 -4 -325z m-1307 0 c0 -110 -4
-170 -10 -170 -19 0 -84 30 -103 48 -66 59 -66 185 -1 244 26 23 76 48 97 48
15 0 17 -15 17 -170z m1523 156 c72 -30 117 -114 103 -192 -8 -38 -66 -110
-97 -119 -10 -3 -28 -8 -39 -11 -19 -5 -20 -1 -20 165 0 111 4 171 10 171 6 0
25 -6 43 -14z m-980 -1093 c95 -26 289 -24 390 5 42 12 80 22 83 22 2 0 4 -34
2 -76 l-3 -76 -141 -109 -142 -108 -141 107 -140 107 -1 79 c0 66 2 77 15 72
9 -3 44 -13 78 -23z m987 -182 c48 -19 74 -34 72 -43 -2 -7 -51 -152 -109
-323 -59 -170 -106 -322 -106 -339 0 -35 42 -76 77 -76 56 0 73 35 200 418 37
109 63 172 71 172 20 0 334 -114 385 -140 132 -66 248 -179 306 -295 64 -130
64 -127 64 -982 l0 -773 -225 0 -225 0 -2 581 -3 581 -29 25 c-23 19 -36 23
-60 19 -64 -13 -61 20 -66 -619 l-5 -582 -97 -3 c-54 -1 -98 -1 -98 2 0 2 15
27 34 55 105 156 114 357 23 520 -82 146 -259 251 -424 251 -29 0 -53 1 -53 3
0 2 47 141 105 310 58 169 105 315 105 326 0 11 -10 32 -22 46 -31 36 -83 37
-113 3 -12 -14 -70 -167 -134 -357 l-113 -331 -252 2 c-246 3 -251 3 -254 24
-2 13 161 321 419 793 326 596 426 770 438 766 9 -3 50 -18 91 -34z m-1236
-1168 c214 -654 391 -1194 393 -1200 4 -10 -79 -13 -396 -13 l-401 0 0 34 c0
18 -31 528 -70 1132 -38 604 -71 1117 -72 1139 l-3 39 70 27 c39 15 75 28 80
28 6 1 185 -533 399 -1186z m1 1155 c6 -13 99 -92 209 -175 150 -116 205 -153
227 -153 21 0 67 29 176 112 226 171 247 188 261 214 13 25 27 30 37 14 5 -8
-650 -1222 -688 -1273 -11 -16 -39 64 -211 590 -110 334 -201 613 -203 619 -3
9 141 70 172 73 6 1 15 -9 20 -21z m-661 -830 c20 -332 40 -627 43 -655 l6
-53 -80 0 c-65 0 -83 -4 -100 -20 -29 -27 -37 -56 -23 -89 16 -39 48 -51 135
-51 65 0 75 -2 75 -17 0 -10 7 -112 15 -228 8 -116 15 -220 15 -232 l0 -23
-317 0 c-184 0 -333 4 -355 10 -45 13 -103 75 -118 127 -24 85 -22 137 20 428
102 718 158 1037 194 1119 27 62 81 125 142 167 41 28 262 117 294 118 14 1
21 -81 54 -601z m1165 -1105 c0 -131 -2 -233 -5 -228 -2 6 -37 112 -78 238
l-73 227 78 0 79 0 -1 -237z m598 222 c197 -58 295 -272 211 -456 -63 -139
-209 -216 -355 -189 -75 13 -127 41 -188 100 -27 27 -62 52 -77 55 l-28 7 0
249 0 249 193 0 c143 0 207 -4 244 -15z"/>
</g>
</svg>
