<?xml version="1.0" standalone="no"?>
<!DOCTYPE svg PUBLIC "-//W3C//DTD SVG 20010904//EN"
 "http://www.w3.org/TR/2001/REC-SVG-20010904/DTD/svg10.dtd">
<svg version="1.0" xmlns="http://www.w3.org/2000/svg"
 width="512.000000pt" height="512.000000pt" viewBox="0 0 512.000000 512.000000"
 preserveAspectRatio="xMidYMid meet">

<g transform="translate(0.000000,512.000000) scale(0.100000,-0.100000)"
fill="#000000" stroke="none">
<path d="M3160 4761 c-78 -4 -144 -11 -157 -18 -12 -7 -58 -65 -103 -128 l-82
-115 -57 0 c-65 0 -81 -11 -81 -55 0 -34 15 -55 41 -55 15 0 14 -4 -5 -42 -16
-34 -22 -67 -24 -151 -3 -59 -1 -122 2 -141 l6 -33 110 -5 c92 -5 119 -10 163
-32 l54 -26 326 0 c315 0 327 1 337 20 16 31 64 50 123 50 53 0 56 2 92 45 43
53 72 70 138 79 l47 7 0 72 c0 49 -7 85 -19 114 l-19 42 21 3 c19 3 22 9 22
53 l0 50 -65 3 -65 3 -80 114 c-44 63 -91 120 -105 128 -29 17 -398 28 -620
18z m597 -56 c22 -16 188 -239 199 -269 6 -15 -47 -16 -560 -16 -416 0 -566 3
-566 11 0 16 187 276 202 282 7 3 168 6 358 6 295 1 349 -1 367 -14z m-796
-390 c77 -39 90 -49 87 -68 -3 -21 -6 -22 -112 -20 -124 2 -146 13 -146 69 0
35 28 64 62 64 10 0 59 -20 109 -45z m1016 23 c47 -44 22 -96 -53 -109 -80
-13 -170 -11 -183 5 -20 24 -1 43 87 84 102 47 118 49 149 20z m-389 -220 c16
-16 15 -53 -2 -67 -9 -8 -72 -11 -202 -9 l-189 3 -3 28 c-7 58 -9 57 196 57
133 0 192 -4 200 -12z"/>
<path d="M2768 4628 c-9 -7 -18 -25 -22 -40 -6 -27 -5 -28 33 -28 34 0 44 5
65 33 15 19 26 37 26 40 0 12 -86 7 -102 -5z"/>
<path d="M3920 4634 c0 -4 9 -22 21 -40 18 -29 26 -34 60 -34 32 0 39 3 39 20
0 33 -35 60 -80 60 -22 0 -40 -3 -40 -6z"/>
<path d="M4160 4091 c-87 -4 -154 -11 -167 -18 -12 -7 -58 -65 -103 -128 l-82
-115 -57 0 c-65 0 -81 -11 -81 -55 0 -34 15 -55 41 -55 15 0 14 -5 -5 -42 -18
-38 -21 -60 -21 -179 0 -123 2 -139 20 -159 44 -50 44 -50 672 -50 372 0 602
4 625 10 69 19 78 44 78 199 0 112 -4 143 -19 178 l-19 42 21 3 c19 3 22 9 22
53 l0 50 -65 3 -65 3 -80 114 c-44 62 -91 120 -105 128 -29 17 -370 27 -610
18z m587 -56 c20 -14 189 -244 200 -272 4 -11 -93 -13 -561 -13 -416 0 -566 3
-566 11 0 20 189 277 207 282 10 3 171 5 358 6 285 1 344 -1 362 -14z m-798
-390 c80 -39 92 -48 89 -68 -3 -21 -6 -22 -111 -20 -88 1 -112 4 -128 19 -27
24 -25 78 3 98 33 23 45 21 147 -29z m1018 23 c47 -44 22 -96 -53 -109 -80
-13 -170 -11 -183 5 -20 24 -1 43 87 84 102 47 118 49 149 20z m-386 -229 c8
-16 8 -28 0 -45 l-11 -24 -192 2 -193 3 -3 28 c-7 58 -9 57 197 57 184 0 191
-1 202 -21z"/>
<path d="M3763 3960 c-13 -5 -23 -16 -23 -24 0 -8 -3 -21 -6 -30 -5 -13 2 -16
34 -16 35 0 45 5 66 33 15 19 26 37 26 40 0 10 -71 7 -97 -3z"/>
<path d="M4910 3960 c0 -6 10 -24 22 -40 17 -24 29 -30 60 -30 31 0 38 3 38
20 0 33 -35 60 -80 60 -22 0 -40 -5 -40 -10z"/>
<path d="M1904 3919 c-45 -13 -68 -38 -187 -206 l-108 -152 -87 -3 -86 -3 -10
-32 c-5 -20 -5 -46 0 -65 8 -28 15 -34 42 -36 18 -2 32 -6 30 -10 -19 -35 -42
-93 -48 -119 l-8 -33 64 0 c64 0 64 0 64 29 0 39 43 81 83 81 38 0 245 -94
270 -123 10 -11 16 -25 14 -30 -2 -6 13 -25 33 -43 20 -18 52 -55 70 -83 28
-40 41 -51 62 -51 15 0 30 5 33 10 9 15 528 13 543 -2 7 -7 12 -30 12 -53 0
-23 -5 -46 -12 -53 -8 -8 -55 -12 -146 -12 -112 0 -133 -2 -129 -14 3 -8 9
-31 13 -50 l6 -36 422 0 c402 0 422 1 454 20 18 11 41 34 52 52 19 31 21 47
18 218 -3 192 -3 193 -56 292 -2 4 12 8 30 10 27 2 34 8 42 36 5 19 5 45 0 65
l-10 32 -85 3 -86 3 -116 162 c-71 100 -128 170 -149 182 -32 19 -52 20 -518
22 -270 1 -499 -2 -516 -8z m1020 -79 c42 -43 267 -363 263 -374 -3 -8 -233
-12 -779 -14 -658 -2 -777 0 -781 12 -7 18 251 377 283 393 19 10 134 12 507
11 l483 -3 24 -25z m291 -495 c37 -36 35 -95 -5 -128 -26 -23 -41 -26 -154
-32 -155 -9 -176 -5 -176 35 0 34 -6 30 135 97 124 60 163 66 200 28z"/>
<path d="M1532 3738 c-6 -7 -13 -30 -17 -50 l-7 -38 55 0 c55 0 55 0 91 50
l36 50 -74 0 c-47 0 -77 -5 -84 -12z"/>
<path d="M3130 3744 c0 -3 14 -26 32 -50 31 -43 32 -44 89 -44 l57 0 -10 38
c-16 57 -23 62 -99 62 -38 0 -69 -3 -69 -6z"/>
<path d="M3710 3225 c0 -77 18 -95 92 -95 61 0 78 17 78 81 l0 49 -57 0 c-32
0 -70 7 -85 14 l-28 15 0 -64z"/>
<path d="M5025 3275 c-16 -8 -56 -14 -87 -15 l-58 0 0 -49 c0 -62 22 -81 92
-81 69 0 88 22 88 100 0 33 -1 60 -2 59 -2 0 -16 -7 -33 -14z"/>
<path d="M685 3141 c-79 -5 -108 -11 -137 -29 -25 -16 -82 -87 -179 -222
l-142 -200 -104 0 c-102 0 -104 0 -113 -26 -13 -32 -13 -86 0 -118 8 -22 16
-26 50 -26 l41 0 -25 -42 c-45 -77 -56 -145 -56 -349 0 -108 5 -200 11 -216
15 -40 57 -82 104 -104 38 -18 86 -19 957 -19 l918 0 15 37 c9 20 34 53 56 74
34 31 43 49 63 122 12 47 30 96 39 110 35 54 116 97 183 97 33 0 34 2 34 38 0
52 -25 142 -55 202 l-25 50 39 0 c35 0 40 3 50 31 14 39 14 80 1 113 -9 26
-11 26 -114 26 l-104 0 -144 202 c-127 179 -150 205 -192 227 l-49 25 -511 2
c-281 1 -556 -1 -611 -5z m926 -70 c188 -5 209 -8 229 -26 39 -35 324 -439
324 -460 1 -20 -5 -20 -954 -20 -955 0 -955 0 -954 20 0 24 299 446 329 467
33 22 602 33 1026 19z m-1144 -681 c81 -39 151 -76 155 -83 15 -23 8 -57 -16
-72 -20 -13 -44 -14 -185 -5 -90 6 -171 15 -181 20 -35 19 -60 61 -60 102 0
32 7 47 34 74 51 51 79 47 253 -36z m1707 60 c80 -30 83 -159 5 -200 -8 -5
-91 -14 -183 -20 -154 -10 -170 -10 -187 6 -27 24 -25 70 4 86 84 47 287 137
309 137 15 1 38 -3 52 -9z m-634 -380 c11 -7 15 -27 15 -75 0 -48 -4 -68 -15
-75 -9 -6 -150 -10 -332 -10 -363 0 -348 -4 -348 85 0 89 -15 85 348 85 182 0
323 -4 332 -10z"/>
<path d="M147 2917 c-10 -6 -24 -34 -32 -60 -17 -57 -14 -59 69 -55 l58 3 44
63 45 62 -84 0 c-51 0 -90 -5 -100 -13z"/>
<path d="M2133 2868 l45 -63 57 -3 c84 -4 87 -2 70 55 -8 26 -22 54 -32 60
-10 8 -49 13 -101 13 l-84 0 45 -62z"/>
<path d="M3305 2802 c-19 -10 -64 -17 -122 -20 l-93 -4 0 -65 c0 -101 2 -103
125 -103 126 0 127 1 123 124 l-3 84 -30 -16z"/>
<path d="M3145 2361 c-359 -8 -318 16 -569 -338 l-158 -223 -127 0 c-127 0
-128 0 -139 -25 -15 -33 -15 -127 0 -160 10 -22 17 -25 60 -25 26 0 48 -2 48
-5 0 -2 -11 -20 -23 -39 -13 -19 -35 -67 -48 -108 -23 -69 -24 -86 -24 -329
l0 -256 30 -49 c19 -30 49 -60 79 -79 l49 -30 1306 0 1306 0 46 27 c53 31 94
87 110 152 7 30 10 119 7 268 -6 239 -13 281 -67 383 -14 28 -27 53 -29 58 -2
4 16 7 41 7 29 0 49 6 58 16 18 22 23 133 7 164 -13 24 -17 25 -143 30 l-129
5 -167 235 c-98 137 -184 248 -208 267 -25 19 -61 35 -93 42 -65 12 -867 20
-1223 12z m1216 -102 c19 -5 45 -19 56 -31 12 -13 105 -140 208 -282 123 -172
185 -267 183 -280 l-3 -21 -1176 -3 c-1084 -2 -1177 -1 -1183 14 -8 20 -19 3
204 315 104 145 196 263 214 274 28 18 54 21 291 26 340 8 1160 0 1206 -12z
m-1641 -833 c135 -64 178 -88 188 -108 15 -32 3 -72 -28 -88 -27 -15 -404 7
-440 25 -112 58 -102 219 16 255 45 13 77 3 264 -84z m2120 65 c59 -42 75
-132 33 -190 -36 -49 -74 -58 -281 -71 -172 -10 -197 -9 -218 5 -29 19 -40 56
-24 85 11 20 216 126 350 181 51 21 101 18 140 -10z m-790 -470 c5 -11 10 -47
10 -81 0 -109 39 -100 -428 -100 -304 0 -411 3 -420 12 -16 16 -16 160 0 176
9 9 116 12 420 12 392 0 408 -1 418 -19z"/>
<path d="M2344 2089 c-17 -5 -36 -15 -42 -21 -8 -10 -42 -111 -42 -125 0 -2
39 -3 88 -3 l87 0 53 74 c28 40 52 76 52 80 0 9 -160 6 -196 -5z"/>
<path d="M4724 2084 c4 -9 27 -45 53 -80 l47 -64 84 0 85 0 -7 41 c-16 98 -49
119 -190 119 -68 0 -77 -2 -72 -16z"/>
<path d="M60 1672 c0 -153 -2 -152 154 -152 81 0 126 4 134 12 8 8 12 47 12
110 l0 98 -108 0 c-88 0 -115 4 -147 20 -22 11 -41 20 -42 20 -2 0 -3 -48 -3
-108z"/>
<path d="M4985 650 c-44 -22 -65 -25 -182 -28 l-133 -4 0 -114 c0 -157 -4
-154 184 -154 196 0 188 -9 184 180 l-3 145 -50 -25z"/>
<path d="M2220 520 c0 -137 2 -150 19 -160 31 -16 303 -13 327 4 17 13 19 29
22 134 l4 120 -139 4 c-118 3 -144 7 -180 26 -23 12 -45 22 -48 22 -3 0 -5
-67 -5 -150z"/>
</g>
</svg>
