<svg xmlns="http://www.w3.org/2000/svg" width="49.171" height="58.768" viewBox="0 0 49.171 58.768">
  <g id="Component_2_1" data-name="Component 2 – 1" transform="translate(0.547)">
    <path id="Path_412" data-name="Path 412" d="M25.988,18.02a9.01,9.01,0,1,0-8.975-9.01,8.993,8.993,0,0,0,8.975,9.01m8.941,2.732h-3.2a2.172,2.172,0,0,0-1.785.934L27.714,24.9a2.173,2.173,0,0,1-3.587-.024L21.989,21.71a2.179,2.179,0,0,0-1.8-.958H17.048A7.332,7.332,0,0,0,9.73,28.1v3.261a1.09,1.09,0,0,0,1.088,1.092H41.159a1.09,1.09,0,0,0,1.088-1.092V28.1a7.332,7.332,0,0,0-7.318-7.345" transform="translate(4.169)" fill="#fff"/>
    <path id="Union_2" data-name="Union 2" d="M9.7,22.7.309,10.769a.323.323,0,0,1,.053-.452l2.7-2.138a.321.321,0,0,1,.451.053L12.9,20.158a.323.323,0,0,1-.052.452l-2.7,2.138A.319.319,0,0,1,9.7,22.7Zm20.6-4.491-3.027-.026-10.952-.092a.671.671,0,0,1-.521-.255L6.749,6.354a.674.674,0,0,1,.112-.946l4.66-3.668A8.043,8.043,0,0,1,16.493.015h.882L30.437,0a3.364,3.364,0,0,1,.007,6.728l-5.7.006a1.682,1.682,0,0,0,0,3.364l6.808-.006A2.689,2.689,0,0,0,33.2,9.519l9.5-7.463a3.367,3.367,0,0,1,4.159,5.3l-11.5,9.113a8.031,8.031,0,0,1-4.992,1.74Z" transform="translate(-0.24 35.45)" fill="#fff" stroke="rgba(0,0,0,0)" stroke-miterlimit="10" stroke-width="1"/>
  </g>
</svg>
