<svg xmlns="http://www.w3.org/2000/svg" xmlns:xlink="http://www.w3.org/1999/xlink" width="50.062" height="45" viewBox="0 0 50.062 45">
  <defs>
    <clipPath id="clip-path">
      <rect id="Rectangle_287" data-name="Rectangle 287" width="50.062" height="45" fill="#fff"/>
    </clipPath>
  </defs>
  <g id="Group_714" data-name="Group 714" clip-path="url(#clip-path)">
    <path id="Path_390" data-name="Path 390" d="M42.36,1.837A14.791,14.791,0,0,0,25.031,4.088,14.791,14.791,0,0,0,7.7,1.837,15.525,15.525,0,0,0,.754,20.028c.058.274.131.549.212.825H13.505L18.236,9.621A2.342,2.342,0,0,1,20.6,8.163a2.371,2.371,0,0,1,2.086,1.868l3.483,15.209,4.5-7.631a2.337,2.337,0,0,1,2.014-1.168h8.55a2.439,2.439,0,0,1,0,4.876H34.017L27.229,32.834a2.338,2.338,0,0,1-2.007,1.173,2.428,2.428,0,0,1-.369-.029,2.4,2.4,0,0,1-1.928-1.844L19.743,18.281l-2.515,5.98a2.35,2.35,0,0,1-2.166,1.466H3.314c6.023,9.25,19.82,18.331,20.824,18.989l-.005.022a1.557,1.557,0,0,0,.882.263h.035a1.557,1.557,0,0,0,.882-.263l-.006-.022c1.212-.794,21.068-13.864,23.383-24.687A15.525,15.525,0,0,0,42.36,1.837" transform="translate(0 0)" fill="#5d5c5c"/>
  </g>
</svg>
