<svg xmlns="http://www.w3.org/2000/svg" xmlns:xlink="http://www.w3.org/1999/xlink" width="40" height="35.503" viewBox="0 0 40 35.503">
  <defs>
    <clipPath id="clip-path">
      <rect id="Rectangle_279" data-name="Rectangle 279" width="40" height="35.503" transform="translate(0 0)" fill="#636161"/>
    </clipPath>
  </defs>
  <g id="Group_736" data-name="Group 736" transform="translate(1074 86.908)">
    <g id="Group_692" data-name="Group 692" transform="translate(-1074 -86.908)" clip-path="url(#clip-path)">
      <path id="Path_384" data-name="Path 384" d="M40.074,9.857c-.02-.124-.038-.253-.056-.378-.04-.284-.081-.578-.15-.871A11.157,11.157,0,0,0,31.421.281a10.158,10.158,0,0,0-8.571,2,11.654,11.654,0,0,0-2.793,3.056,12.672,12.672,0,0,0-2.348-2.7A10.959,10.959,0,0,0,14.261.652,11.939,11.939,0,0,0,11.283.04c-.031,0-.072-.01-.115-.019L11.085.006,11.047,0h-.588l-.03,0-.358.045c-.26.032-.529.066-.8.108A10.692,10.692,0,0,0,3.435,3.089,10.963,10.963,0,0,0,.193,8.922c-.059.295-.1.591-.136.877-.017.127-.034.258-.052.385l0,.033v1.266l0,.034c.018.122.035.245.052.368.037.272.076.553.13.833A15.922,15.922,0,0,0,1.751,17,34.152,34.152,0,0,0,6.3,23.548a66.017,66.017,0,0,0,7.771,7.624c1.387,1.166,2.832,2.3,4.23,3.4l.358.281a4.273,4.273,0,0,0,.768.452c.11.054.213.106.312.16l.1.057h.429l.1-.05c.075-.038.153-.074.237-.113a3.394,3.394,0,0,0,.615-.338c.773-.568,1.53-1.148,2.25-1.723.572-.457,1.14-.934,1.689-1.395l.563-.471a1.486,1.486,0,0,0,.53-1.358,1.609,1.609,0,0,0-.957-1.341,1.425,1.425,0,0,0-1.466.195c-.087.07-.182.136-.283.206s-.207.144-.312.226q-.641.5-1.28,1.009c-.622.491-1.265,1-1.9,1.495-2.167-1.649-4.265-3.394-6.236-5.187a53.708,53.708,0,0,1-6.868-7.335,22.1,22.1,0,0,1-2.9-4.859,8.563,8.563,0,0,1-.67-5.2A7.637,7.637,0,0,1,4.9,5.98a7.588,7.588,0,0,1,7.177-2.589,7.461,7.461,0,0,1,3.72,1.6,7.655,7.655,0,0,1,2.235,3.386,10.829,10.829,0,0,1,.461,2.539l.016.158a1.559,1.559,0,0,0,.19.621,1.57,1.57,0,0,0,2.926-.674c.015-.124.028-.248.042-.372.053-.475.1-.924.194-1.366a7.854,7.854,0,0,1,1.292-3.042,7,7,0,0,1,2.507-2.113,7.944,7.944,0,0,1,5.315-.669A6.868,6.868,0,0,1,35.212,5.98a7.594,7.594,0,0,1,1.261,7.273c-.217.689-.5,1.381-.776,2.049l-.061.149A1.443,1.443,0,0,0,35.8,16.8a1.587,1.587,0,0,0,2.81-.209,14,14,0,0,0,1.3-3.7c.062-.3.1-.594.128-.881.014-.124.028-.252.044-.376l0-.03V9.893Z" transform="translate(0 -0.022)" fill="#636161"/>
      <path id="Path_385" data-name="Path 385" d="M315.831,352.049h-.049c-.242,0-.483,0-.738-.008-.213-.006-.433-.011-.653-.01-.787,0-1.586.015-2.358.024l-.661.008a1.442,1.442,0,0,0-1.319.761c-.071.128-.146.259-.22.386-.125.216-.254.44-.372.671-.642,1.257-1.29,2.537-1.917,3.775l-.482.951-.525-1.551q-.674-1.993-1.349-3.986c-.382-1.126-.772-2.271-1.15-3.377l-.419-1.229a1.458,1.458,0,0,0-1.367-1.012,1.351,1.351,0,0,0-1.412.73c-.141.265-.288.534-.43.794-.178.326-.362.662-.538,1-.484.927-.974,1.871-1.447,2.784l-.625,1.206-.032-.1c-.2-.6-.4-1.215-.618-1.82-.17-.476-.38-.981-.643-1.546a1.338,1.338,0,0,0-1.283-.758,1.56,1.56,0,0,0-1.1.47c-.6.558-1.185,1.106-1.744,1.67a.442.442,0,0,1-.381.153,15.656,15.656,0,0,0-1.7.071,1.323,1.323,0,0,0-1.206,1.087,1.5,1.5,0,0,0,.6,1.748,1.951,1.951,0,0,0,.972.267c.776.016,1.561,0,2.321-.008l.292,0a.859.859,0,0,0,.548-.227c.207-.192.41-.39.607-.582l.063-.061c.234.667.477,1.363.716,2.05q.153.441.305.883c.181.527.369,1.072.559,1.607a1.412,1.412,0,0,0,1.246.944,1.366,1.366,0,0,0,1.483-.674c.077-.139.158-.281.237-.419.134-.234.273-.476.4-.724.59-1.14,1.186-2.3,1.763-3.422l.656-1.276.541,1.613c.588,1.753,1.2,3.565,1.8,5.346.27.8.556,1.6.833,2.378q.147.413.293.826a1.389,1.389,0,0,0,1.443.969q.1,0,.2-.008a1.227,1.227,0,0,0,1.048-.672c.05-.1.107-.191.167-.292.071-.118.144-.24.211-.371,1.6-3.153,2.83-5.574,3.974-7.841.953,0,1.92-.01,2.856-.018l.723-.006a1.539,1.539,0,0,0,1.3-.656,2.148,2.148,0,0,0,.208-.392c.02-.046.039-.09.059-.129l.047-.1v-.575l-.021-.067a1.658,1.658,0,0,0-1.709-1.256" transform="translate(-277.481 -333.583)" fill="#636161"/>
    </g>
  </g>
</svg>
