<?xml version="1.0" standalone="no"?>
<!DOCTYPE svg PUBLIC "-//W3C//DTD SVG 20010904//EN"
 "http://www.w3.org/TR/2001/REC-SVG-20010904/DTD/svg10.dtd">
<svg version="1.0" xmlns="http://www.w3.org/2000/svg"
 width="512.000000pt" height="512.000000pt" viewBox="0 0 512.000000 512.000000"
 preserveAspectRatio="xMidYMid meet">

<g transform="translate(0.000000,512.000000) scale(0.100000,-0.100000)"
fill="#000000" stroke="none">
<path d="M1956 4805 c-223 -173 -408 -315 -411 -315 -3 0 -5 46 -5 103 0 120
-12 171 -48 210 -53 57 -56 57 -382 57 -340 0 -355 -3 -401 -77 l-24 -38 -3
-466 -3 -467 -320 -248 c-260 -203 -323 -257 -339 -290 -18 -37 -20 -62 -20
-308 0 -226 3 -273 16 -302 35 -73 119 -114 193 -94 24 6 90 49 168 110 l128
99 5 -1292 c5 -1217 6 -1294 23 -1332 23 -50 70 -100 122 -128 l40 -22 1544
-3 c1464 -2 1547 -1 1580 16 73 36 927 659 1004 732 132 125 217 266 268 445
23 79 23 86 26 839 3 649 2 761 -11 780 -9 14 -72 48 -170 90 l-156 69 0 129
c0 147 -8 175 -66 229 -22 20 -547 431 -1167 913 -900 699 -1134 876 -1157
876 -23 0 -116 -68 -434 -315z m1554 -750 l1100 -856 0 -75 c0 -57 -3 -75 -12
-71 -7 2 -194 84 -416 181 -221 97 -412 176 -423 176 -12 0 -295 214 -667 504
-356 277 -658 509 -670 515 -13 7 -35 10 -48 7 -13 -4 -513 -387 -1111 -852
l-1088 -846 -3 228 c-2 207 -1 230 15 245 67 64 2199 1709 2210 1705 7 -3 508
-390 1113 -861z m-2142 463 l-3 -172 -240 -188 c-132 -104 -248 -193 -257
-198 -17 -10 -18 10 -18 360 l0 370 260 0 260 0 -2 -172z m1607 -728 c316
-245 573 -449 572 -453 -1 -5 -254 -118 -562 -253 -325 -141 -567 -253 -577
-265 -16 -19 -18 -54 -18 -395 l0 -374 -312 0 c-182 0 -328 -4 -350 -10 -65
-18 -130 -70 -160 -129 l-28 -53 0 -844 0 -844 -399 0 -400 0 -28 24 -28 24
-3 1349 -2 1348 852 662 c469 365 857 662 862 660 4 -1 266 -203 581 -447z
m1381 -818 l589 -258 0 -705 c0 -652 -1 -709 -18 -768 -42 -146 -114 -268
-218 -366 -73 -69 -932 -690 -954 -690 -8 0 -219 147 -469 328 -501 361 -557
410 -633 553 -23 43 -52 115 -65 159 l-23 80 0 704 0 705 585 257 c322 141
592 258 601 258 8 1 280 -115 605 -257z m-1964 -1394 c5 -343 12 -388 88 -547
86 -178 170 -268 418 -449 l172 -125 0 -143 0 -144 -680 0 -680 0 0 828 c1
634 3 831 13 843 28 36 47 38 359 39 l306 0 4 -302z m963 -1326 c50 -36 94
-69 100 -73 5 -5 -40 -9 -103 -9 l-112 0 0 81 c0 61 3 78 13 73 6 -4 53 -36
102 -72z"/>
<path d="M3250 2830 c-322 -142 -482 -218 -497 -236 l-23 -25 0 -597 c0 -664
2 -680 65 -810 60 -120 113 -167 536 -472 325 -234 397 -282 424 -282 28 0
100 48 424 282 469 338 503 372 570 553 l26 72 3 626 3 627 -23 26 c-28 31
-943 436 -998 442 -28 2 -130 -39 -510 -206z m907 -144 c219 -96 410 -180 426
-187 l27 -12 0 -542 c0 -311 -4 -564 -10 -594 -13 -67 -51 -146 -95 -199 -32
-37 -731 -552 -750 -552 -16 0 -714 512 -743 544 -46 53 -79 114 -96 181 -14
50 -16 145 -16 611 l0 551 163 72 c560 246 683 300 689 300 4 1 187 -77 405
-173z"/>
<path d="M4222 2374 c-13 -9 -163 -226 -334 -482 -171 -257 -313 -470 -317
-474 -3 -3 -71 52 -150 123 -129 116 -147 129 -181 129 -80 0 -109 -89 -47
-150 97 -96 351 -316 370 -321 59 -15 62 -11 430 540 193 289 353 539 355 554
11 71 -68 122 -126 81z"/>
</g>
</svg>
