<?xml version="1.0" standalone="no"?>
<!DOCTYPE svg PUBLIC "-//W3C//DTD SVG 20010904//EN"
 "http://www.w3.org/TR/2001/REC-SVG-20010904/DTD/svg10.dtd">
<svg version="1.0" xmlns="http://www.w3.org/2000/svg"
 width="600.000000pt" height="600.000000pt" viewBox="0 0 600.000000 600.000000"
 preserveAspectRatio="xMidYMid meet">

<g transform="translate(0.000000,600.000000) scale(0.100000,-0.100000)"
fill="#000000" stroke="none">
<path d="M30 3000 l0 -2970 2970 0 2970 0 0 2970 0 2970 -2970 0 -2970 0 0
-2970z m5550 0 l0 -2580 -2580 0 -2580 0 0 2580 0 2580 2580 0 2580 0 0 -2580z"/>
<path d="M1295 3328 c1 -1003 3 -1970 4 -2150 l1 -328 1720 0 1720 0 0 490 0
490 -1115 0 -1115 0 0 340 0 340 1115 0 1115 0 0 490 0 490 -1115 0 -1115 0 0
340 0 340 1115 0 1115 0 0 490 0 490 -1724 0 -1724 0 3 -1822z"/>
</g>
</svg>
