<?xml version="1.0" standalone="no"?>
<!DOCTYPE svg PUBLIC "-//W3C//DTD SVG 20010904//EN"
 "http://www.w3.org/TR/2001/REC-SVG-20010904/DTD/svg10.dtd">
<svg version="1.0" xmlns="http://www.w3.org/2000/svg"
 width="512.000000pt" height="512.000000pt" viewBox="0 0 512.000000 512.000000"
 preserveAspectRatio="xMidYMid meet">

<g transform="translate(0.000000,512.000000) scale(0.100000,-0.100000)"
fill="#000000" stroke="none">
<path d="M1405 4775 c-220 -117 -933 -511 -945 -522 -12 -11 -16 -56 -20 -236
l-5 -222 -85 -5 c-147 -10 -254 -79 -316 -206 l-29 -59 0 -1235 0 -1235 33
-67 c40 -82 111 -148 190 -179 49 -20 81 -23 228 -27 l172 -4 6 -41 c22 -136
158 -306 298 -372 78 -37 186 -65 253 -65 135 0 296 69 396 169 71 71 141 194
154 270 l7 41 881 -2 881 -3 12 -49 c52 -202 227 -366 439 -411 88 -18 132
-18 220 0 208 44 386 212 435 411 l13 52 106 4 c181 9 286 70 353 206 l33 67
3 547 3 547 -145 159 c-585 640 -619 676 -686 712 l-65 35 -630 5 -630 5 -5
235 -5 235 -34 63 c-66 122 -163 183 -303 190 l-87 4 -3 219 c-3 203 -4 220
-23 238 -25 25 -991 540 -1025 547 -16 3 -43 -4 -75 -21z m513 -400 l432 -230
0 -360 c0 -391 -7 -471 -56 -627 -95 -301 -301 -559 -574 -718 -36 -20 -108
-56 -161 -80 l-97 -42 -123 60 c-360 174 -603 473 -696 861 -25 103 -26 118
-30 506 l-4 400 423 232 c233 127 430 231 438 230 9 -1 210 -105 448 -232z
m-1475 -907 c7 -169 27 -281 77 -423 115 -323 339 -595 633 -767 89 -52 283
-138 311 -138 38 0 296 118 390 178 390 249 631 653 666 1115 5 73 10 145 10
161 l0 28 69 -4 c85 -4 139 -36 170 -100 l21 -44 0 -1257 0 -1257 -523 0 -523
0 -13 51 c-51 198 -221 364 -420 409 -72 17 -203 14 -275 -5 -188 -50 -355
-219 -398 -402 l-13 -53 -159 0 c-150 0 -162 1 -200 24 -24 14 -52 42 -66 68
l-25 43 -3 1173 c-1 791 1 1186 8 1212 23 85 101 139 201 140 l56 0 6 -152z
m3765 -600 c27 -15 142 -132 332 -340 159 -174 290 -319 290 -322 0 -4 -420
-5 -932 -4 l-933 3 -3 343 -2 342 603 0 604 0 41 -22z m740 -1305 l-3 -468
-25 -43 c-14 -26 -42 -54 -66 -68 -35 -21 -54 -24 -135 -24 l-95 0 -13 51
c-39 152 -154 295 -291 361 -97 46 -155 59 -260 59 -161 0 -281 -51 -397 -167
-77 -77 -136 -181 -149 -261 l-7 -43 -273 0 -274 0 0 535 0 535 995 0 996 0
-3 -467z m-3606 -335 c118 -55 205 -167 229 -300 10 -54 9 -76 -5 -140 -28
-125 -101 -217 -216 -272 -60 -29 -73 -31 -170 -31 -96 0 -110 3 -165 29 -80
40 -149 111 -188 194 -29 61 -32 76 -32 162 0 85 3 102 31 160 49 104 135 179
249 217 66 21 199 12 267 -19z m2880 0 c116 -53 205 -169 228 -295 30 -167
-67 -347 -224 -420 -55 -25 -72 -28 -166 -28 -94 0 -111 3 -161 28 -88 43
-143 98 -186 185 -36 72 -38 81 -38 171 0 87 3 102 32 163 50 105 131 176 248
215 66 21 199 12 267 -19z"/>
<path d="M1885 3778 c-18 -11 -474 -377 -521 -420 -21 -18 -21 -18 -133 112
-111 129 -119 135 -176 131 -28 -3 -65 -47 -65 -79 0 -35 9 -47 158 -222 136
-159 163 -178 215 -156 32 14 597 469 630 508 20 23 22 76 4 99 -28 36 -76 48
-112 27z"/>
</g>
</svg>
