<?xml version="1.0" standalone="no"?>
<!DOCTYPE svg PUBLIC "-//W3C//DTD SVG 20010904//EN"
 "http://www.w3.org/TR/2001/REC-SVG-20010904/DTD/svg10.dtd">
<svg version="1.0" xmlns="http://www.w3.org/2000/svg"
 width="512.000000pt" height="512.000000pt" viewBox="0 0 512.000000 512.000000"
 preserveAspectRatio="xMidYMid meet">

<g transform="translate(0.000000,512.000000) scale(0.100000,-0.100000)"
fill="#000000" stroke="none">
<path d="M730 3846 c-96 -25 -185 -107 -217 -199 -17 -49 -18 -115 -18 -1087
0 -975 1 -1038 18 -1087 24 -70 93 -145 165 -180 l57 -28 1825 0 1825 0 57 28
c72 35 141 110 165 180 17 49 18 112 18 1087 0 975 -1 1038 -18 1087 -24 70
-93 145 -165 180 l-57 28 -1805 2 c-1405 1 -1815 -1 -1850 -11z m3646 -167
c60 -28 86 -74 92 -160 l5 -69 -1913 0 -1913 0 5 69 c6 85 32 131 91 160 l42
21 1774 0 c1775 0 1775 0 1817 -21z m89 -529 l0 -135 -1905 0 -1905 0 -3 124
c-1 69 0 131 2 138 4 11 348 13 1908 11 l1903 -3 0 -135z m3 -957 l-3 -658
-23 -37 c-13 -21 -40 -45 -66 -57 -42 -21 -42 -21 -1816 -21 -1774 0 -1774 0
-1816 21 -26 12 -53 36 -66 57 l-23 37 -3 658 -3 657 1911 0 1911 0 -3 -657z"/>
<path d="M932 2577 c-27 -29 -28 -77 -3 -108 l19 -24 404 -3 c221 -1 413 0
425 3 60 15 82 87 38 130 l-24 25 -419 0 -419 0 -21 -23z"/>
<path d="M2121 2583 c-11 -10 -24 -32 -27 -50 -5 -27 -1 -37 24 -63 l31 -31
416 3 417 3 25 29 c29 35 26 80 -8 109 -19 16 -56 17 -439 17 -383 0 -420 -1
-439 -17z"/>
<path d="M3301 2574 c-38 -48 -16 -115 42 -129 12 -3 204 -4 425 -3 l404 3 19
24 c26 32 25 82 -4 109 -23 22 -26 22 -444 22 l-422 0 -20 -26z"/>
<path d="M895 2175 c-25 -24 -25 -24 -25 -240 0 -216 0 -216 25 -240 l24 -25
445 0 c305 0 453 3 469 11 14 6 30 22 36 36 15 34 15 407 -1 436 -25 47 -19
46 -496 47 l-453 0 -24 -25z m825 -240 l0 -105 -345 0 -345 0 0 105 0 105 345
0 345 0 0 -105z"/>
<path d="M2086 2179 l-26 -20 0 -224 0 -224 26 -20 c26 -21 37 -21 474 -21
437 0 448 0 474 21 l26 20 0 224 0 224 -26 20 c-26 21 -37 21 -474 21 -437 0
-448 0 -474 -21z m814 -244 l0 -105 -340 0 -340 0 0 105 0 105 340 0 340 0 0
-105z"/>
<path d="M3279 2187 c-35 -27 -39 -54 -39 -257 l0 -202 29 -29 29 -29 452 0
451 0 24 25 c25 24 25 24 25 240 0 216 0 216 -25 240 l-24 25 -453 0 c-340 -1
-457 -4 -469 -13z m811 -252 l0 -105 -345 0 -345 0 0 105 0 105 345 0 345 0 0
-105z"/>
</g>
</svg>
