<?xml version="1.0" standalone="no"?>
<!DOCTYPE svg PUBLIC "-//W3C//DTD SVG 20010904//EN"
 "http://www.w3.org/TR/2001/REC-SVG-20010904/DTD/svg10.dtd">
<svg version="1.0" xmlns="http://www.w3.org/2000/svg"
 width="512.000000pt" height="512.000000pt" viewBox="0 0 512.000000 512.000000"
 preserveAspectRatio="xMidYMid meet">

<g transform="translate(0.000000,512.000000) scale(0.100000,-0.100000)"
fill="#000000" stroke="none">
<path d="M25 5095 l-25 -24 0 -2511 0 -2511 25 -24 24 -25 1311 0 1311 0 24
25 25 24 0 599 c0 591 0 600 -21 626 -29 37 -89 37 -118 0 -21 -26 -21 -35
-21 -570 l0 -544 -165 0 -165 0 0 374 0 375 -26 20 c-27 21 -32 21 -844 21
-812 0 -817 0 -844 -21 l-26 -20 0 -375 0 -374 -165 0 -165 0 0 2400 0 2400
1200 0 1200 0 0 -240 0 -241 25 -24 c32 -33 78 -33 110 0 l25 24 0 296 0 296
-25 24 -24 25 -1311 0 -1311 0 -24 -25z m1255 -4620 l0 -315 -315 0 -315 0 0
315 0 315 315 0 315 0 0 -315z m790 0 l0 -315 -315 0 -315 0 0 315 0 315 315
0 315 0 0 -315z"/>
<path d="M534 4618 c-40 -19 -44 -47 -44 -319 l0 -260 25 -24 24 -25 271 0
271 0 24 25 25 24 0 271 0 271 -25 24 -24 25 -263 -1 c-159 0 -271 -4 -284
-11z m436 -308 l0 -160 -160 0 -160 0 0 160 0 160 160 0 160 0 0 -160z"/>
<path d="M1615 4605 l-25 -24 0 -271 0 -271 25 -24 24 -25 269 0 c251 0 271 1
293 19 24 19 24 20 27 282 3 281 0 308 -44 328 -17 7 -113 11 -285 11 l-260 0
-24 -25z m455 -295 l0 -160 -160 0 -160 0 0 160 0 160 160 0 160 0 0 -160z"/>
<path d="M3343 4480 c-661 -69 -1200 -499 -1403 -1118 -60 -185 -75 -287 -75
-507 0 -220 15 -322 75 -505 233 -713 928 -1179 1670 -1119 289 23 549 114
795 276 199 132 430 393 539 612 138 274 201 619 166 911 -82 685 -564 1241
-1219 1404 -178 45 -390 62 -548 46z m389 -176 c307 -51 580 -194 803 -419
203 -206 333 -451 396 -745 30 -142 33 -398 5 -545 -108 -579 -537 -1032
-1106 -1169 -477 -116 -990 20 -1347 357 -394 373 -552 919 -416 1442 69 265
188 471 388 670 339 340 803 488 1277 409z"/>
<path d="M3460 3863 c-32 -12 -187 -152 -258 -233 -196 -224 -326 -489 -384
-782 -17 -87 -22 -150 -22 -273 -1 -151 1 -165 28 -249 111 -338 457 -541 804
-470 44 9 117 35 172 61 79 38 107 59 180 132 94 95 142 174 181 301 19 61 24
97 23 195 0 170 -38 304 -144 517 -60 119 -190 320 -222 343 -58 40 -106 3
-143 -109 -14 -43 -32 -88 -40 -98 -13 -19 -14 -18 -35 22 -12 23 -28 72 -36
109 -16 77 -18 294 -4 396 12 80 2 116 -36 134 -27 12 -40 13 -64 4z m-45
-608 c22 -81 73 -172 117 -208 79 -64 175 -38 235 61 l31 53 36 -60 c103 -169
178 -370 191 -511 12 -133 -36 -291 -118 -385 l-34 -39 -1 74 c-1 84 -36 218
-80 309 -21 44 -34 58 -58 65 -51 14 -79 -9 -127 -104 -23 -46 -47 -85 -54
-87 -26 -9 -84 206 -101 377 -11 106 -27 130 -88 130 -45 0 -64 -21 -118 -127
-89 -179 -136 -361 -139 -541 l-2 -103 -32 38 c-49 57 -91 142 -109 219 -32
134 -5 394 61 591 60 180 180 387 302 522 l58 65 7 -140 c3 -76 14 -166 23
-199z m-26 -875 c49 -95 93 -130 160 -130 48 0 98 26 130 66 l20 25 7 -38 c21
-106 0 -187 -64 -249 -43 -42 -98 -58 -180 -51 -78 6 -130 38 -169 104 -26 44
-28 56 -27 143 1 99 14 182 40 272 l16 53 22 -75 c12 -41 33 -95 45 -120z"/>
<path d="M534 3649 c-40 -20 -44 -48 -44 -320 l0 -260 25 -24 24 -25 271 0
271 0 24 25 25 24 0 269 c0 251 -1 271 -19 293 l-19 24 -269 2 c-172 1 -276
-2 -289 -8z m436 -309 l0 -160 -160 0 -160 0 0 160 0 160 160 0 160 0 0 -160z"/>
<path d="M1633 3650 c-40 -16 -43 -38 -43 -315 l0 -266 25 -24 c15 -16 36 -25
55 -25 19 0 40 9 55 25 25 24 25 24 25 240 l0 215 34 0 c48 0 65 8 81 41 21
40 19 57 -14 90 -28 28 -34 29 -113 28 -46 0 -93 -4 -105 -9z"/>
<path d="M519 2661 l-29 -29 0 -267 0 -266 25 -24 24 -25 271 0 271 0 24 25
25 24 0 265 c0 145 -3 272 -6 281 -16 40 -52 45 -319 45 l-257 0 -29 -29z
m451 -291 l0 -160 -160 0 -160 0 0 160 0 160 160 0 160 0 0 -160z"/>
<path d="M1635 2678 c-44 -24 -45 -30 -45 -310 l0 -269 25 -24 c22 -23 32 -25
114 -25 106 0 117 3 136 41 21 40 19 57 -14 90 -22 21 -39 29 -65 29 l-36 0 0
211 0 211 -29 29 c-31 31 -53 35 -86 17z"/>
<path d="M519 1691 l-29 -29 0 -267 0 -266 25 -24 24 -25 271 0 271 0 24 25
25 24 0 268 c-1 195 -4 272 -13 284 -28 36 -52 39 -312 39 l-257 0 -29 -29z
m451 -291 l0 -160 -160 0 -160 0 0 160 0 160 160 0 160 0 0 -160z"/>
<path d="M1635 1708 c-43 -25 -44 -32 -45 -311 l0 -268 25 -24 24 -25 271 0
271 0 24 25 25 24 0 266 0 267 -29 29 -29 29 -259 0 c-175 -1 -264 -4 -278
-12z m435 -308 l0 -160 -160 0 -160 0 0 160 0 160 160 0 160 0 0 -160z"/>
</g>
</svg>
