<?xml version="1.0" standalone="no"?>
<!DOCTYPE svg PUBLIC "-//W3C//DTD SVG 20010904//EN"
 "http://www.w3.org/TR/2001/REC-SVG-20010904/DTD/svg10.dtd">
<svg version="1.0" xmlns="http://www.w3.org/2000/svg"
 width="512.000000pt" height="512.000000pt" viewBox="0 0 512.000000 512.000000"
 preserveAspectRatio="xMidYMid meet">

<g transform="translate(0.000000,512.000000) scale(0.100000,-0.100000)"
fill="#000000" stroke="none">
<path d="M4044 4883 c0 -109 -4 -137 -24 -188 -79 -202 -207 -296 -491 -360
-180 -41 -300 -93 -395 -172 -142 -119 -234 -298 -269 -525 -3 -21 -10 -38
-15 -38 -17 0 -71 86 -87 140 -11 36 -17 92 -18 161 l0 107 -50 -41 c-277
-228 -442 -453 -506 -692 -33 -122 -31 -309 5 -428 27 -91 83 -210 134 -285
l29 -43 5 108 c6 131 34 219 102 322 41 61 137 161 155 161 3 0 17 -25 30 -55
27 -62 89 -138 132 -160 38 -20 103 -19 147 2 90 42 164 148 247 353 101 246
158 343 253 432 80 73 149 105 315 145 236 56 360 132 427 261 l29 57 -5 -65
c-17 -203 -55 -391 -106 -520 -62 -156 -141 -251 -259 -310 -86 -44 -172 -128
-211 -208 -26 -52 -33 -80 -36 -146 -13 -245 144 -378 428 -364 157 9 285 69
350 165 l32 48 -6 -54 c-12 -90 -72 -309 -113 -412 -63 -157 -119 -245 -213
-339 -90 -90 -152 -130 -241 -154 -104 -28 107 -10 229 19 95 23 256 105 326
165 249 215 371 588 353 1075 -6 163 -25 335 -36 335 -3 0 -17 -17 -30 -38
-95 -146 -257 -266 -435 -321 -37 -11 -81 -21 -98 -21 -29 0 -28 2 34 54 173
148 296 346 350 563 29 115 31 334 4 466 -58 295 -210 597 -461 915 -7 8 -10
-28 -11 -115z"/>
<path d="M2360 4695 c-19 -7 -444 -215 -945 -462 -998 -493 -955 -467 -955
-558 0 -80 75 -151 150 -142 40 5 98 33 890 422 322 158 658 323 748 366 l163
79 157 -76 c86 -42 179 -80 206 -85 26 -4 66 -18 89 -29 l40 -21 76 74 c42 40
89 83 104 95 l29 21 -309 152 c-268 132 -379 181 -402 178 -3 0 -22 -6 -41
-14z"/>
<path d="M2365 4090 c-16 -4 -327 -150 -690 -325 -714 -343 -729 -352 -754
-441 -15 -53 -15 -1364 0 -1417 5 -21 24 -53 41 -72 59 -68 -3 -65 1353 -63
l1219 3 13 55 c8 30 28 72 44 92 l30 38 -1258 2 -1258 3 0 653 0 654 543 257
543 257 84 95 c45 53 111 120 145 150 58 51 61 54 39 60 -31 9 -57 9 -94 -1z"/>
<path d="M433 1475 c-37 -16 -47 -41 -38 -95 9 -55 24 -75 283 -378 125 -147
288 -338 361 -425 74 -87 150 -169 170 -182 38 -25 71 -37 531 -187 l285 -93
135 1 c123 1 170 8 515 73 522 99 909 168 1039 186 60 9 121 21 135 28 l26 12
3 334 2 334 -22 25 c-38 40 -96 68 -231 111 -258 83 -473 113 -587 82 -25 -7
-153 -55 -284 -108 -279 -112 -301 -116 -551 -102 -372 20 -489 22 -548 9
-106 -22 -155 -96 -104 -156 48 -57 57 -59 582 -114 55 -6 206 -20 335 -30
259 -22 285 -30 285 -86 0 -36 -45 -64 -117 -70 -29 -3 -297 15 -594 39 l-542
44 -65 35 c-100 53 -207 135 -262 200 -27 33 -120 128 -206 212 -174 171 -301
264 -407 296 -75 23 -86 24 -129 5z"/>
<path d="M4060 1157 l-25 -13 -3 -374 c-2 -372 -2 -375 19 -392 18 -15 43 -18
175 -18 141 0 156 2 174 20 19 19 20 33 20 391 l0 370 -35 15 c-45 18 -288 20
-325 1z"/>
</g>
</svg>
