<svg xmlns="http://www.w3.org/2000/svg" xmlns:xlink="http://www.w3.org/1999/xlink" width="41.236" height="42.93" viewBox="0 0 41.236 42.93">
  <defs>
    <clipPath id="clip-path">
      <rect id="Rectangle_233" data-name="Rectangle 233" width="28.976" height="21.375" fill="#fff"/>
    </clipPath>
  </defs>
  <g id="Component_3_1" data-name="Component 3 – 1" transform="translate(0.544)">
    <path id="Union_3" data-name="Union 3" d="M8.141,18.953.3,8.993a.27.27,0,0,1,.044-.378L2.593,6.83a.268.268,0,0,1,.377.044l7.842,9.959a.27.27,0,0,1-.044.378L8.516,19a.266.266,0,0,1-.375-.044Zm17.2-3.75-2.528-.021-9.146-.076a.56.56,0,0,1-.435-.213L5.676,5.306a.563.563,0,0,1,.094-.79L9.661,1.453A6.717,6.717,0,0,1,13.812.012h.736L25.457,0a2.809,2.809,0,0,1,.006,5.619L20.7,5.624a1.4,1.4,0,0,0,0,2.809l5.686-.005a2.245,2.245,0,0,0,1.38-.479L35.7,1.717A2.812,2.812,0,0,1,39.174,6.14l-9.6,7.61A6.707,6.707,0,0,1,25.4,15.2Z" transform="translate(-0.24 23.375)" fill="#fff" stroke="rgba(0,0,0,0)" stroke-miterlimit="10" stroke-width="1"/>
    <g id="Group_740" data-name="Group 740" transform="translate(11.024 0)">
      <g id="Group_607" data-name="Group 607" transform="translate(0 0)" clip-path="url(#clip-path)">
        <path id="Path_366" data-name="Path 366" d="M3.85,5.876C4.2,5.138,4.519,4.413,4.874,3.7c.305-.609.661-1.193.971-1.8A2.915,2.915,0,0,1,8.226.325,36.236,36.236,0,0,1,13.285.006a54.73,54.73,0,0,1,6.39.2c.508.058,1.011.161,1.515.253a2.062,2.062,0,0,1,1.52,1.055c.679,1.252,1.33,2.519,1.988,3.781.095.182.17.374.253.558.034-.006.063,0,.072-.013a1.943,1.943,0,0,1,1.821-.669c.336.029.676,0,1.014.009a.949.949,0,0,1,.956.835.966.966,0,0,1-.708,1.09c-.627.183-1.258.352-1.932.539.08.107.135.188.2.262.362.423.73.842,1.089,1.268a3.574,3.574,0,0,1,.874,2.365q0,4.51,0,9.021a.811.811,0,0,1-.926.929q-1.492,0-2.984,0a.8.8,0,0,1-.878-.886c-.006-.5,0-.995,0-1.52H5.283c0,.488,0,.971,0,1.455,0,.648-.307.951-.943.951q-1.476,0-2.953,0a.8.8,0,0,1-.894-.9q0-4.526,0-9.052A3.609,3.609,0,0,1,1.4,9.127Q1.935,8.5,2.469,7.881c.058-.068.108-.142.18-.237C2.008,7.464,1.4,7.294.792,7.121A.981.981,0,0,1,.011,6a.97.97,0,0,1,1.035-.82c.431,0,.862.017,1.292-.006a1.508,1.508,0,0,1,1.272.5,2.683,2.683,0,0,0,.241.21m.995,1.163a91.517,91.517,0,0,1,19.115,0c-.1-.215-.174-.395-.262-.567-.691-1.352-1.39-2.7-2.074-4.056a1.085,1.085,0,0,0-.9-.649c-1.028-.108-2.056-.276-3.086-.3q-3.181-.071-6.364,0c-1.061.024-2.119.193-3.178.3a1.068,1.068,0,0,0-.884.628c-.357.7-.75,1.38-1.106,2.08-.42.826-.818,1.664-1.258,2.564m9.563,8.95v0h2.8c.42,0,.513-.09.514-.5,0-.29,0-.58,0-.871a.354.354,0,0,0-.4-.4q-2.906,0-5.811,0c-.287,0-.407.15-.408.424,0,.29,0,.581,0,.871,0,.376.1.475.478.476.943,0,1.886,0,2.829,0M4.734,13.424c.083-.006.257-.008.43-.032a1.317,1.317,0,0,0,1.3-1.312A2.294,2.294,0,0,0,4.027,9.788a1.8,1.8,0,0,0-1.6,1.254,1.685,1.685,0,0,0,.645,1.92,2.739,2.739,0,0,0,1.659.461m19.488.086a9.3,9.3,0,0,0,1.334-.435,1.637,1.637,0,0,0,.9-1.75A1.8,1.8,0,0,0,25.08,9.83a2.3,2.3,0,0,0-2.708,2.395,1.018,1.018,0,0,0,.591.917,10.872,10.872,0,0,0,1.258.368" transform="translate(0 0)" fill="#fff"/>
      </g>
    </g>
  </g>
</svg>
