<svg xmlns="http://www.w3.org/2000/svg" xmlns:xlink="http://www.w3.org/1999/xlink" width="74.463" height="85.469" viewBox="0 0 74.463 85.469">
  <defs>
    <clipPath id="clip-path">
      <rect id="Rectangle_231" data-name="Rectangle 231" width="50.062" height="45" fill="#fff"/>
    </clipPath>
  </defs>
  <g id="Group_627" data-name="Group 627" transform="translate(-564 -1123)">
    <g id="Group_609" data-name="Group 609" transform="translate(18.463)">
      <path id="Path_368" data-name="Path 368" d="M68.125,27.8a5.243,5.243,0,0,0-7.365-.881L45.9,38.6a4.2,4.2,0,0,1-2.584.9l-10.645.011a2.633,2.633,0,0,1,0-5.266l8.92-.011A5.266,5.266,0,0,0,41.579,23.7l-20.424.021-1.379,0A12.562,12.562,0,0,0,12,26.426L4.717,32.168a1.056,1.056,0,0,0-.176,1.481L18.7,51.618a1.047,1.047,0,0,0,.814.4l17.124.143,4.733.04a12.551,12.551,0,0,0,7.917-2.724L67.262,35.212a5.289,5.289,0,0,0,.863-7.411" transform="translate(550.742 1149.27)" fill="#fff"/>
      <path id="Path_367" data-name="Path 367" d="M.495,0,5.807-.012a.5.5,0,0,1,.5.5l-.042,23.44a.5.5,0,0,1-.5.5L.45,24.431a.493.493,0,0,1-.494-.495L0,.495A.5.5,0,0,1,.495,0Z" transform="translate(545.579 1189.274) rotate(-38.32)" fill="#fff"/>
    </g>
    <g id="Group_610" data-name="Group 610" transform="translate(579.255 1123)">
      <g id="Group_597" data-name="Group 597" clip-path="url(#clip-path)">
        <path id="Path_364" data-name="Path 364" d="M42.36,1.837A14.791,14.791,0,0,0,25.031,4.088,14.791,14.791,0,0,0,7.7,1.837,15.525,15.525,0,0,0,.754,20.028c.058.274.131.549.212.825H13.505L18.236,9.621A2.342,2.342,0,0,1,20.6,8.163a2.371,2.371,0,0,1,2.086,1.868l3.483,15.209,4.5-7.631a2.337,2.337,0,0,1,2.014-1.168h8.55a2.439,2.439,0,0,1,0,4.876H34.017L27.229,32.834a2.338,2.338,0,0,1-2.007,1.173,2.428,2.428,0,0,1-.369-.029,2.4,2.4,0,0,1-1.928-1.844L19.743,18.281l-2.515,5.98a2.35,2.35,0,0,1-2.166,1.466H3.314c6.023,9.25,19.82,18.331,20.824,18.989l-.005.022a1.557,1.557,0,0,0,.882.263h.035a1.557,1.557,0,0,0,.882-.263l-.006-.022c1.212-.794,21.068-13.864,23.383-24.687A15.525,15.525,0,0,0,42.36,1.837" transform="translate(0 0)" fill="#fff"/>
      </g>
    </g>
    <g id="Group_711" data-name="Group 711" transform="translate(579.255 1123)">
      <g id="Group_597-2" data-name="Group 597" clip-path="url(#clip-path)">
        <path id="Path_364-2" data-name="Path 364" d="M42.36,1.837A14.791,14.791,0,0,0,25.031,4.088,14.791,14.791,0,0,0,7.7,1.837,15.525,15.525,0,0,0,.754,20.028c.058.274.131.549.212.825H13.505L18.236,9.621A2.342,2.342,0,0,1,20.6,8.163a2.371,2.371,0,0,1,2.086,1.868l3.483,15.209,4.5-7.631a2.337,2.337,0,0,1,2.014-1.168h8.55a2.439,2.439,0,0,1,0,4.876H34.017L27.229,32.834a2.338,2.338,0,0,1-2.007,1.173,2.428,2.428,0,0,1-.369-.029,2.4,2.4,0,0,1-1.928-1.844L19.743,18.281l-2.515,5.98a2.35,2.35,0,0,1-2.166,1.466H3.314c6.023,9.25,19.82,18.331,20.824,18.989l-.005.022a1.557,1.557,0,0,0,.882.263h.035a1.557,1.557,0,0,0,.882-.263l-.006-.022c1.212-.794,21.068-13.864,23.383-24.687A15.525,15.525,0,0,0,42.36,1.837" transform="translate(0 0)" fill="#fff"/>
      </g>
    </g>
  </g>
</svg>
