<svg xmlns="http://www.w3.org/2000/svg" width="51.647" height="50" viewBox="0 0 51.647 50">
  <g id="house-black-silhouette-without-door" transform="translate(0 -4.89)">
    <path id="Path_127" data-name="Path 127" d="M51,29.285a2.463,2.463,0,0,0-.2-3.524L27.716,5.565a2.877,2.877,0,0,0-3.753.043L.8,26.838a2.448,2.448,0,0,0-.111,3.519l.581.6a2.532,2.532,0,0,0,3.476.266l1.731-1.55V52.371A2.519,2.519,0,0,0,9,54.89h9.028a2.519,2.519,0,0,0,2.519-2.519V36.495H32.061V52.371a2.381,2.381,0,0,0,2.367,2.518h9.567a2.519,2.519,0,0,0,2.519-2.519V30l1.068.937c.589.517,1.825.1,2.762-.928Z" transform="translate(0)" fill="#5d5c5c"/>
  </g>
</svg>
