<?xml version="1.0" encoding="UTF-8"?>
<!DOCTYPE svg PUBLIC "-//W3C//DTD SVG 1.1//EN" "http://www.w3.org/Graphics/SVG/1.1/DTD/svg11.dtd">
<svg xmlns="http://www.w3.org/2000/svg" version="1.1" width="512px" height="512px" style="shape-rendering:geometricPrecision; text-rendering:geometricPrecision; image-rendering:optimizeQuality; fill-rule:evenodd; clip-rule:evenodd" xmlns:xlink="http://www.w3.org/1999/xlink">
<g><path style="opacity:0.922" fill="#000000" d="M 95.5,15.5 C 187.501,15.3333 279.501,15.5 371.5,16C 379.157,18.7969 383.323,24.2969 384,32.5C 384.499,38.1569 384.666,43.8236 384.5,49.5C 393.173,49.3336 401.84,49.5002 410.5,50C 415.91,51.7425 419.744,55.2425 422,60.5C 423.473,86.4355 423.973,112.436 423.5,138.5C 437.568,142.022 451.568,145.855 465.5,150C 467.049,151.214 468.215,152.714 469,154.5C 469.667,171.5 469.667,188.5 469,205.5C 466.283,238.29 451.283,263.623 424,281.5C 423.333,322.167 423.333,362.833 424,403.5C 434.654,408.659 444.987,414.325 455,420.5C 461.063,429.245 462.063,438.578 458,448.5C 455,453.5 452,458.5 449,463.5C 441.444,471.472 432.444,473.806 422,470.5C 419.551,471.944 417.385,473.778 415.5,476C 413.913,476.862 412.246,477.529 410.5,478C 354.834,478.5 299.168,478.667 243.5,478.5C 243.666,482.514 243.499,486.514 243,490.5C 242.727,492.329 241.893,493.829 240.5,495C 199.5,495.667 158.5,495.667 117.5,495C 117,494.5 116.5,494 116,493.5C 115.501,488.511 115.334,483.511 115.5,478.5C 108.159,478.666 100.826,478.5 93.5,478C 87.6667,476.167 83.8333,472.333 82,466.5C 81.5003,459.174 81.3337,451.841 81.5,444.5C 71.7529,444.92 62.0862,444.42 52.5,443C 46.4422,440.062 42.9422,435.229 42,428.5C 41.3333,312.167 41.3333,195.833 42,79.5C 59.2917,57.7088 77.125,36.3755 95.5,15.5 Z M 104.5,26.5 C 191.501,26.3333 278.501,26.5 365.5,27C 369.333,27.5 371.5,29.6667 372,33.5C 372.833,68.1715 372.667,102.838 371.5,137.5C 356.448,141.846 341.448,146.346 326.5,151C 326,151.5 325.5,152 325,152.5C 324.333,172.167 324.333,191.833 325,211.5C 329.638,242.794 345.304,266.794 372,283.5C 372.833,314.839 372.667,346.172 371.5,377.5C 357.661,371.084 344.328,363.917 331.5,356C 333.287,352.928 334.953,349.761 336.5,346.5C 344.504,346.668 351.338,344.002 357,338.5C 360.401,333.423 363.401,328.089 366,322.5C 367.041,317.56 366.374,312.894 364,308.5C 345.49,296.661 326.323,285.995 306.5,276.5C 303.728,277.026 301.062,277.859 298.5,279C 293.19,285.116 289.024,291.949 286,299.5C 285.833,301.333 285.667,303.167 285.5,305C 286.089,310.403 287.256,315.569 289,320.5C 277.414,340.003 266.081,359.67 255,379.5C 246.087,378.932 238.754,382.266 233,389.5C 229.074,395.351 226.241,401.684 224.5,408.5C 224.787,411.865 225.954,414.865 228,417.5C 235.754,422.963 243.921,427.797 252.5,432C 243.149,432.832 233.816,432.665 224.5,431.5C 221.856,426.671 217.856,423.505 212.5,422C 190.167,421.333 167.833,421.333 145.5,422C 140.144,423.505 136.144,426.671 133.5,431.5C 108.173,432.666 82.8399,432.833 57.5,432C 55.9512,430.786 54.7845,429.286 54,427.5C 53.5,313.834 53.3333,200.167 53.5,86.5C 66.5043,86.6666 79.5043,86.4999 92.5,86C 98.3333,84.1667 102.167,80.3333 104,74.5C 104.5,58.5035 104.667,42.5035 104.5,26.5 Z M 91.5,38.5 C 92.659,49.3255 92.8257,60.3255 92,71.5C 91.1667,72.3333 90.3333,73.1667 89.5,74C 80.1667,74.6667 70.8333,74.6667 61.5,74C 72.0862,62.5872 82.0862,50.7539 91.5,38.5 Z M 384.5,61.5 C 392.174,61.3336 399.841,61.5003 407.5,62C 408.416,62.3742 409.25,62.8742 410,63.5C 411.148,75.5746 411.648,87.7413 411.5,100C 411.167,111.5 410.833,123 410.5,134.5C 406.072,132.934 401.572,131.601 397,130.5C 392.796,131.426 388.629,132.426 384.5,133.5C 384.5,109.5 384.5,85.5 384.5,61.5 Z M 212.5,110.5 C 230.37,123.912 238.87,141.912 238,164.5C 221.325,153.835 204.658,153.835 188,164.5C 187.258,142.326 195.425,124.326 212.5,110.5 Z M 192.5,112.5 C 181.462,127.613 175.462,144.613 174.5,163.5C 162.177,156.669 149.177,154.835 135.5,158C 146.974,133.355 165.974,118.189 192.5,112.5 Z M 233.5,112.5 C 256.138,117.567 273.638,129.9 286,149.5C 287.741,152.309 288.908,155.309 289.5,158.5C 276.155,154.946 263.488,156.613 251.5,163.5C 250.24,144.713 244.24,127.713 233.5,112.5 Z M 396.5,142.5 C 416.375,148.637 436.375,154.47 456.5,160C 457.159,167.257 457.492,174.59 457.5,182C 461.357,220.269 447.69,250.269 416.5,272C 410.18,275.66 403.514,278.493 396.5,280.5C 365.005,270.17 345.505,248.837 338,216.5C 336.254,197.628 336.087,178.794 337.5,160C 357.369,154.428 377.035,148.595 396.5,142.5 Z M 392.5,177.5 C 416.465,178.296 427.631,190.63 426,214.5C 419.955,231.87 407.788,239.37 389.5,237C 371.276,230.389 364.11,217.556 368,198.5C 372.705,187.284 380.872,180.284 392.5,177.5 Z M 305.5,288.5 C 321.779,297.606 337.945,306.939 354,316.5C 352.57,322.844 349.403,328.344 344.5,333C 342.167,333.667 339.833,333.667 337.5,333C 324.256,326.131 311.423,318.631 299,310.5C 297.578,307.97 297.245,305.303 298,302.5C 300.258,297.647 302.758,292.981 305.5,288.5 Z M 408.5,288.5 C 409.5,288.5 410.5,288.5 411.5,288.5C 411.667,324.835 411.5,361.168 411,397.5C 402.578,393.039 394.078,388.706 385.5,384.5C 384.5,352.84 384.167,321.174 384.5,289.5C 388.488,290.495 392.488,291.495 396.5,292.5C 400.915,292.071 404.915,290.738 408.5,288.5 Z M 299.5,325.5 C 308.509,330.335 317.176,335.668 325.5,341.5C 314.24,361.027 302.74,380.361 291,399.5C 282.435,394.8 273.935,389.967 265.5,385C 277.489,365.519 288.822,345.685 299.5,325.5 Z M 324.5,367.5 C 364.698,386.266 404.364,406.099 443.5,427C 448.081,430.438 449.581,434.938 448,440.5C 444.934,447.482 440.768,453.648 435.5,459C 430.815,461.084 426.482,460.418 422.5,457C 386.328,433.415 350.328,409.582 314.5,385.5C 317.845,379.473 321.179,373.473 324.5,367.5 Z M 250.5,391.5 C 264.913,398.07 278.746,405.736 292,414.5C 293.885,416.914 294.552,419.581 294,422.5C 291.895,427.21 289.395,431.71 286.5,436C 284.711,436.52 283.044,436.187 281.5,435C 266.334,426.252 251.334,417.252 236.5,408C 239.126,403.916 241.626,399.75 244,395.5C 246.013,393.752 248.18,392.418 250.5,391.5 Z M 307.5,396.5 C 326.117,407.814 344.45,419.647 362.5,432C 342.825,432.833 323.158,432.666 303.5,431.5C 307.827,422.95 307.16,414.784 301.5,407C 303.891,403.717 305.891,400.217 307.5,396.5 Z M 148.5,433.5 C 169.169,433.333 189.836,433.5 210.5,434C 211.667,435.167 212.833,436.333 214,437.5C 214.499,441.821 214.666,446.154 214.5,450.5C 190.833,450.5 167.167,450.5 143.5,450.5C 143.334,446.154 143.501,441.821 144,437.5C 145.397,435.93 146.897,434.596 148.5,433.5 Z M 375.5,441.5 C 386.598,448.082 397.598,454.915 408.5,462C 411.096,463.797 410.763,465.131 407.5,466C 352.5,466.667 297.5,466.667 242.5,466C 239.489,458.484 234.155,453.65 226.5,451.5C 226.5,449.167 226.5,446.833 226.5,444.5C 242.503,444.333 258.503,444.5 274.5,445C 281.567,449.612 288.567,449.612 295.5,445C 320.5,444.667 345.5,444.333 370.5,444C 372.491,443.626 374.158,442.793 375.5,441.5 Z M 93.5,444.5 C 106.167,444.5 118.833,444.5 131.5,444.5C 131.5,446.833 131.5,449.167 131.5,451.5C 123.5,453.5 118.5,458.5 116.5,466.5C 109.825,466.666 103.158,466.5 96.5,466C 95.6667,465.167 94.8333,464.333 94,463.5C 93.5005,457.175 93.3338,450.842 93.5,444.5 Z M 133.5,462.5 C 163.835,462.333 194.168,462.5 224.5,463C 227,464.167 228.833,466 230,468.5C 231.191,473.767 231.691,479.101 231.5,484.5C 196.833,484.5 162.167,484.5 127.5,484.5C 127.334,479.156 127.501,473.823 128,468.5C 129.36,465.977 131.193,463.977 133.5,462.5 Z"/></g>
<g><path style="opacity:0.908" fill="#000000" d="M 209.5,88.5 C 216.833,87.1667 219.833,90.1667 218.5,97.5C 251.77,100.041 277.604,115.041 296,142.5C 300.985,151.621 304.485,161.288 306.5,171.5C 306.099,175.401 303.932,177.401 300,177.5C 295.091,174.63 289.924,172.13 284.5,170C 269.259,166.413 257.259,171.079 248.5,184C 246.305,185.373 243.971,185.706 241.5,185C 235.82,176.809 228.153,171.642 218.5,169.5C 218.667,202.502 218.5,235.502 218,268.5C 211.251,281.733 201.084,285.233 187.5,279C 179.986,273.454 177.486,266.287 180,257.5C 186.968,254.29 190.635,256.623 191,264.5C 195.648,271.843 200.648,272.176 206,265.5C 206.5,233.502 206.667,201.502 206.5,169.5C 197.475,171.35 190.475,176.183 185.5,184C 182.833,186 180.167,186 177.5,184C 168.741,171.079 156.741,166.413 141.5,170C 135.964,172.271 130.63,174.771 125.5,177.5C 121.876,177.21 119.876,175.21 119.5,171.5C 126.673,138.975 145.673,116.475 176.5,104C 186.248,100.617 196.248,98.4505 206.5,97.5C 206.515,94.1209 207.515,91.1209 209.5,88.5 Z M 212.5,110.5 C 195.425,124.326 187.258,142.326 188,164.5C 204.658,153.835 221.325,153.835 238,164.5C 238.87,141.912 230.37,123.912 212.5,110.5 Z M 192.5,112.5 C 165.974,118.189 146.974,133.355 135.5,158C 149.177,154.835 162.177,156.669 174.5,163.5C 175.462,144.613 181.462,127.613 192.5,112.5 Z M 233.5,112.5 C 256.138,117.567 273.638,129.9 286,149.5C 287.741,152.309 288.908,155.309 289.5,158.5C 276.155,154.946 263.488,156.613 251.5,163.5C 250.24,144.713 244.24,127.713 233.5,112.5 Z"/></g>
<g><path style="opacity:0.9" fill="#000000" d="M 391.5,165.5 C 415.383,164.846 430.883,175.846 438,198.5C 441.354,224.653 430.521,241.487 405.5,249C 378.125,252.069 361.292,240.236 355,213.5C 353.145,195.046 359.978,180.88 375.5,171C 380.74,168.534 386.073,166.7 391.5,165.5 Z M 392.5,177.5 C 380.872,180.284 372.705,187.284 368,198.5C 364.11,217.556 371.276,230.389 389.5,237C 407.788,239.37 419.955,231.87 426,214.5C 427.631,190.63 416.465,178.296 392.5,177.5 Z"/></g>
<g><path style="opacity:0.879" fill="#000000" d="M 410.5,191.5 C 416.849,192.027 419.016,195.361 417,201.5C 410.5,208.667 404,215.833 397.5,223C 394.697,223.755 392.03,223.422 389.5,222C 384.729,218.862 380.229,215.362 376,211.5C 374.789,206.583 376.622,203.583 381.5,202.5C 385.968,203.804 389.802,206.137 393,209.5C 398.365,202.969 404.198,196.969 410.5,191.5 Z"/></g>
<g><path style="opacity:0.91" fill="#000000" d="M 89.5,301.5 C 150.834,301.333 212.168,301.5 273.5,302C 276.287,304.167 277.12,307.001 276,310.5C 275.097,311.701 273.931,312.535 272.5,313C 211.833,313.667 151.167,313.667 90.5,313C 85.7607,309.595 85.4274,305.762 89.5,301.5 Z"/></g>
<g><path style="opacity:0.911" fill="#000000" d="M 90.5,337.5 C 146.834,337.333 203.168,337.5 259.5,338C 263.5,341.667 263.5,345.333 259.5,349C 203.167,349.667 146.833,349.667 90.5,349C 85.2475,345.173 85.2475,341.34 90.5,337.5 Z"/></g>
<g><path style="opacity:0.908" fill="#000000" d="M 90.5,373.5 C 133.168,373.333 175.835,373.5 218.5,374C 223.285,377.26 223.619,380.927 219.5,385C 176.167,385.667 132.833,385.667 89.5,385C 85.6387,380.767 85.972,376.933 90.5,373.5 Z"/></g>
</svg>
