<svg id="Group_722" data-name="Group 722" xmlns="http://www.w3.org/2000/svg" xmlns:xlink="http://www.w3.org/1999/xlink" width="40" height="40.07" viewBox="0 0 40 40.07">
  <defs>
    <clipPath id="clip-path">
      <rect id="Rectangle_170" data-name="Rectangle 170" width="40" height="40.07" fill="#5d5c5c"/>
    </clipPath>
  </defs>
  <g id="Group_529" data-name="Group 529" clip-path="url(#clip-path)">
    <path id="Path_335" data-name="Path 335" d="M0,271.54c.429-1.914,1.8-3,3.4-3.9a1.159,1.159,0,0,1,1.593.432,1.181,1.181,0,0,1-.4,1.579,14.957,14.957,0,0,0-1.6,1.169,1.44,1.44,0,0,0-.027,2.389,9.286,9.286,0,0,0,3.492,2,32.514,32.514,0,0,0,7.824,1.727,51.026,51.026,0,0,0,8.615.23,34.316,34.316,0,0,0,11.237-2.2,11.708,11.708,0,0,0,2.531-1.439c1.33-1,1.3-1.967.019-3.014a11.235,11.235,0,0,0-1.161-.787,1.2,1.2,0,0,1-.507-1.669,1.157,1.157,0,0,1,1.7-.345,13.136,13.136,0,0,1,2.015,1.524,3.714,3.714,0,0,1-.01,5.611,10.414,10.414,0,0,1-3.4,2.177,29.848,29.848,0,0,1-8.131,2.089c-1.573.2-3.16.284-4.741.423-.115.01-.227.04-.341.06H17.888c-.113-.02-.226-.049-.34-.06-2.078-.216-4.167-.359-6.232-.662a24.311,24.311,0,0,1-7.359-2.188C2.13,275.779.482,274.669,0,272.479Z" transform="translate(0 -239.528)" fill="#5d5c5c"/>
    <path id="Path_336" data-name="Path 336" d="M87.124,10.742a10.9,10.9,0,0,1,21.627-1.774,10.719,10.719,0,0,1-.67,5.7,66.893,66.893,0,0,1-4.7,9.682c-.916,1.62-1.857,3.228-2.838,4.81a2.927,2.927,0,0,1-5.016.019,101.691,101.691,0,0,1-6.686-12.353,20.065,20.065,0,0,1-1.625-5c-.055-.359-.063-.726-.093-1.089M98.051,5.8a4.381,4.381,0,1,0,4.353,4.389A4.375,4.375,0,0,0,98.051,5.8" transform="translate(-78.032 0)" fill="#5d5c5c"/>
    <path id="Path_337" data-name="Path 337" d="M88.835,259.235c-1.571-1.169-3.468-1.413-5.361-1.8.4-.69.785-1.352,1.184-2a.346.346,0,0,1,.3-.1,13.718,13.718,0,0,1,4.559,1.532,4.907,4.907,0,0,1,.977.77,2.292,2.292,0,0,1,0,3.356,7.12,7.12,0,0,1-3.087,1.681,26.618,26.618,0,0,1-6.21,1.1,41.252,41.252,0,0,1-7.913-.147,19.115,19.115,0,0,1-6.283-1.59,5.979,5.979,0,0,1-1.52-1.071,2.263,2.263,0,0,1-.011-3.321,6.361,6.361,0,0,1,2.749-1.576c.875-.285,1.781-.479,2.671-.719a.4.4,0,0,1,.533.233c.335.615.7,1.213,1.061,1.825-.949.222-1.875.416-2.787.658a6.17,6.17,0,0,0-2.614,1.251,8.023,8.023,0,0,0,.682.479,11.645,11.645,0,0,0,3.583,1.16,37.526,37.526,0,0,0,11.969.228,15.936,15.936,0,0,0,4.26-1.078c.445-.193.858-.462,1.286-.7l-.019-.171" transform="translate(-57.985 -228.635)" fill="#5d5c5c"/>
  </g>
</svg>
