<?xml version="1.0" standalone="no"?>
<!DOCTYPE svg PUBLIC "-//W3C//DTD SVG 20010904//EN"
 "http://www.w3.org/TR/2001/REC-SVG-20010904/DTD/svg10.dtd">
<svg version="1.0" xmlns="http://www.w3.org/2000/svg"
 width="512.000000pt" height="512.000000pt" viewBox="0 0 512.000000 512.000000"
 preserveAspectRatio="xMidYMid meet">

<g transform="translate(0.000000,512.000000) scale(0.100000,-0.100000)"
fill="#000000" stroke="none">
<path d="M2486 4925 c-156 -111 -474 -238 -751 -299 -367 -82 -840 -104 -1245
-56 -85 10 -117 0 -137 -40 -16 -32 -18 -1637 -3 -1860 33 -462 164 -876 398
-1253 300 -486 802 -882 1432 -1130 161 -64 352 -127 382 -127 28 0 267 80
403 135 440 178 801 416 1091 718 389 405 623 911 705 1527 18 133 24 1957 6
1990 -21 40 -52 50 -137 40 -41 -5 -166 -14 -278 -20 -644 -36 -1287 102
-1693 361 -42 27 -87 49 -100 49 -13 0 -46 -16 -73 -35z m134 -180 c173 -105
485 -224 730 -278 309 -69 674 -97 1014 -78 116 7 220 13 231 14 20 2 20 -5
23 -773 4 -983 -6 -1137 -89 -1449 -229 -861 -851 -1479 -1821 -1810 l-145
-49 -129 42 c-968 320 -1603 942 -1839 1801 -87 318 -97 473 -93 1465 3 768 3
775 23 773 11 -1 117 -7 236 -14 416 -23 852 23 1199 127 196 58 445 165 557
238 21 13 40 25 42 25 2 1 29 -15 61 -34z"/>
<path d="M2495 4213 c-94 -20 -188 -80 -237 -151 -142 -207 -45 -489 194 -564
187 -58 383 41 454 227 29 77 26 194 -8 267 -37 80 -71 121 -133 162 -78 52
-190 77 -270 59z m176 -187 c113 -75 130 -223 36 -320 -104 -108 -275 -78
-338 59 -37 80 -19 169 47 232 24 23 58 47 76 52 53 17 135 6 179 -23z"/>
<path d="M2100 3426 c-112 -25 -197 -94 -247 -201 l-28 -60 -3 -455 c-2 -313
0 -471 8 -507 24 -112 111 -183 235 -191 l72 -4 7 -172 c3 -94 8 -322 12 -506
3 -184 10 -350 16 -368 5 -17 18 -37 28 -42 25 -13 695 -13 720 0 10 5 23 25
28 42 6 18 13 186 16 373 4 187 9 415 13 508 l6 167 52 0 c119 0 220 70 250
173 14 48 16 118 13 519 l-3 463 -29 62 c-49 107 -145 181 -261 202 -84 16
-832 13 -905 -3z m891 -156 c54 -15 100 -50 123 -95 20 -39 21 -53 21 -498 l0
-459 -28 -24 c-22 -18 -40 -24 -79 -24 l-50 0 6 58 c3 31 8 218 12 415 l6 358
-23 25 c-28 29 -77 32 -110 5 -19 -15 -23 -30 -26 -82 -4 -78 -43 -1720 -43
-1813 l0 -66 -80 0 -80 0 0 485 c0 338 -3 492 -11 509 -16 35 -61 52 -98 37
-15 -7 -33 -24 -40 -37 -8 -17 -11 -171 -11 -509 l0 -485 -80 0 -80 0 0 48 c1
130 -42 1850 -46 1870 -13 61 -91 83 -133 38 l-23 -25 6 -358 c4 -197 9 -384
12 -415 l6 -58 -52 0 c-44 0 -56 4 -81 29 l-29 29 0 439 c0 277 4 452 11 476
13 50 76 112 125 125 52 13 827 15 875 2z"/>
</g>
</svg>
