<svg xmlns="http://www.w3.org/2000/svg" width="38.03" height="50" viewBox="0 0 38.03 50">
  <g id="Group_718" data-name="Group 718" transform="translate(-507 -1239)">
    <g id="man-user" transform="translate(465.105 1239)">
      <path id="Path_128" data-name="Path 128" d="M114.6,24.453c5.559,0,10.066-5.474,10.066-12.227S123.188,0,114.6,0s-10.066,5.474-10.066,12.227S109.042,24.453,114.6,24.453Z" transform="translate(-53.691)" fill="#5d5c5c"/>
      <path id="Path_129" data-name="Path 129" d="M41.9,300.583c0-.412,0-.116,0,0Z" transform="translate(0 -257.462)" fill="#5d5c5c"/>
      <path id="Path_130" data-name="Path 130" d="M308.085,301.86c.005-.113,0-.782,0,0Z" transform="translate(-228.163 -258.417)" fill="#5d5c5c"/>
      <path id="Path_131" data-name="Path 131" d="M79.912,194.977c-.186-11.763-1.723-15.115-13.479-17.237,0,0-1.655,2.109-5.512,2.109s-5.512-2.109-5.512-2.109c-11.628,2.1-13.258,5.4-13.472,16.855-.018.935-.026.984-.029.876,0,.2,0,.58,0,1.236,0,0,2.8,5.642,19.011,5.642s19.011-5.642,19.011-5.642c0-.422,0-.715,0-.914A7.574,7.574,0,0,1,79.912,194.977Z" transform="translate(-0.011 -152.349)" fill="#5d5c5c"/>
    </g>
  </g>
</svg>
