<?xml version="1.0" standalone="no"?>
<!DOCTYPE svg PUBLIC "-//W3C//DTD SVG 20010904//EN"
 "http://www.w3.org/TR/2001/REC-SVG-20010904/DTD/svg10.dtd">
<svg version="1.0" xmlns="http://www.w3.org/2000/svg"
 width="512.000000pt" height="512.000000pt" viewBox="0 0 512.000000 512.000000"
 preserveAspectRatio="xMidYMid meet">

<g transform="translate(0.000000,512.000000) scale(0.100000,-0.100000)"
fill="#000000" stroke="none">
<path d="M922 4377 l-312 -312 0 -1595 c0 -1068 4 -1607 10 -1632 17 -59 69
-120 129 -150 l55 -28 1109 0 1109 0 131 -100 c73 -54 152 -106 176 -115 67
-23 166 -20 228 9 61 29 667 489 735 559 99 100 169 235 199 381 17 83 19 145
19 732 0 524 -2 644 -14 659 -11 15 -37 21 -148 31 -296 28 -553 128 -787 308
l-61 47 0 648 c0 710 0 705 -59 780 -17 22 -55 51 -83 65 l-52 26 -1036 0
-1035 0 -313 -313z m2349 183 c19 -5 48 -24 65 -41 l29 -30 3 -657 2 -657 -60
-49 c-90 -72 -252 -166 -363 -210 -54 -21 -99 -37 -101 -35 -1 2 -15 38 -29
79 -73 202 -230 372 -423 461 -38 18 -70 33 -72 35 -2 1 14 21 37 44 87 90
126 195 119 325 -10 196 -159 362 -357 396 -178 32 -370 -70 -454 -240 -30
-62 -32 -71 -32 -181 0 -108 2 -119 31 -181 18 -36 52 -88 78 -114 25 -27 45
-49 43 -50 -1 -1 -27 -12 -57 -25 -169 -70 -315 -212 -400 -385 -83 -171 -83
-172 -87 -648 -4 -370 -3 -421 11 -442 l16 -25 543 -2 542 -3 5 -260 6 -260
32 -95 c64 -184 141 -284 330 -425 67 -49 121 -93 122 -98 0 -4 -453 -6 -1007
-5 -1105 3 -1044 0 -1083 63 -20 32 -20 56 -20 1584 l0 1551 188 0 c103 0 203
5 223 10 47 13 124 81 152 134 20 38 22 58 25 244 l4 202 951 0 c596 0 965 -4
988 -10z m-2081 -362 c-6 -20 -24 -48 -41 -62 -30 -25 -35 -26 -172 -26 l-142
0 180 180 180 180 3 -117 c2 -65 -2 -135 -8 -155z m995 -133 c103 -50 165
-150 165 -265 0 -87 -25 -147 -89 -211 -43 -42 -69 -59 -115 -73 -195 -61
-388 80 -388 283 0 222 228 364 427 266z m3 -711 c148 -30 305 -126 397 -242
48 -59 106 -171 123 -233 l10 -36 -67 -11 c-36 -6 -110 -14 -163 -18 -72 -5
-102 -11 -113 -24 -12 -14 -15 -72 -17 -376 l-3 -359 -490 0 -490 0 0 370 c0
418 2 434 78 579 139 268 439 411 735 350z m1397 -405 c205 -138 467 -236 688
-255 34 -3 72 -7 85 -10 l22 -4 0 -598 c0 -485 -3 -610 -15 -667 -20 -97 -85
-223 -151 -294 -54 -58 -640 -513 -704 -546 -40 -21 -110 -22 -149 -2 -49 24
-641 478 -693 532 -62 62 -119 159 -150 250 -23 70 -23 72 -26 694 -2 501 0
626 10 633 7 4 32 8 55 8 59 0 233 35 328 66 169 55 325 135 470 243 l80 59
30 -24 c17 -13 71 -51 120 -85z"/>
<path d="M1265 1595 c-30 -29 -31 -45 -4 -79 l20 -26 379 0 379 0 20 26 c27
34 26 50 -4 79 l-24 25 -371 0 -371 0 -24 -25z"/>
<path d="M1261 1194 c-27 -34 -26 -50 4 -79 l24 -25 371 0 371 0 24 25 c30 29
31 45 4 79 l-20 26 -379 0 -379 0 -20 -26z"/>
<path d="M3143 2619 c-22 -11 -54 -39 -70 -61 -27 -40 -28 -45 -31 -190 -3
-121 -6 -148 -18 -148 -32 0 -114 -52 -157 -100 -79 -87 -82 -107 -82 -475 l0
-320 26 -56 c34 -72 96 -134 168 -168 l56 -26 390 0 c463 0 461 0 561 99 97
97 99 107 99 486 l0 315 -26 55 c-14 31 -41 73 -59 94 -36 40 -124 96 -152 96
-16 0 -18 13 -18 123 0 143 -10 184 -53 234 -53 60 -68 63 -344 63 -230 0
-251 -2 -290 -21z m542 -133 c12 -18 15 -48 13 -137 l-3 -114 -262 -3 -263 -2
0 122 c0 99 3 125 17 140 15 16 36 18 249 18 l234 0 15 -24z m158 -402 c46
-23 66 -43 91 -89 20 -38 21 -57 24 -307 4 -323 -1 -360 -61 -423 -26 -27 -57
-47 -82 -54 -55 -15 -706 -15 -760 0 -52 15 -119 82 -134 134 -15 55 -15 570
0 616 17 50 55 96 97 119 35 18 60 19 415 20 329 0 382 -2 410 -16z"/>
<path d="M3355 1964 c-48 -18 -100 -65 -126 -116 -26 -50 -26 -146 0 -197 22
-42 80 -97 117 -111 23 -9 24 -13 24 -114 0 -101 1 -105 26 -125 34 -27 50
-26 79 4 23 22 25 31 25 124 l0 101 39 19 c76 39 121 115 121 203 -1 158 -157
266 -305 212z m152 -149 c25 -28 30 -82 13 -116 -16 -30 -68 -52 -105 -45 -84
16 -105 129 -34 180 34 25 97 15 126 -19z"/>
</g>
</svg>
