<?xml version="1.0" standalone="no"?>
<!DOCTYPE svg PUBLIC "-//W3C//DTD SVG 20010904//EN"
 "http://www.w3.org/TR/2001/REC-SVG-20010904/DTD/svg10.dtd">
<svg version="1.0" xmlns="http://www.w3.org/2000/svg"
 width="512.000000pt" height="512.000000pt" viewBox="0 0 512.000000 512.000000"
 preserveAspectRatio="xMidYMid meet">

<g transform="translate(0.000000,512.000000) scale(0.100000,-0.100000)"
fill="#000000" stroke="none">
<path d="M2495 5103 c-16 -9 -60 -44 -98 -79 -184 -170 -438 -299 -700 -356
-86 -19 -133 -22 -297 -22 -232 0 -278 8 -606 109 -235 72 -267 76 -322 36
-67 -47 -64 9 -59 -1034 4 -1006 4 -997 57 -1282 202 -1072 943 -1994 1954
-2430 134 -58 146 -58 315 18 985 443 1694 1332 1905 2387 59 294 59 287 63
1307 5 1043 8 987 -59 1034 -55 40 -87 36 -322 -36 -328 -101 -374 -109 -606
-109 -164 0 -211 3 -297 22 -260 56 -517 187 -699 355 -106 98 -160 117 -229
80z m121 -382 c200 -158 474 -288 721 -340 316 -69 639 -51 966 53 l108 34 -4
-816 c-3 -686 -7 -835 -20 -932 -100 -700 -381 -1273 -862 -1755 -242 -242
-491 -421 -802 -576 l-162 -81 -143 70 c-573 281 -1025 708 -1331 1258 -203
364 -333 801 -367 1228 -5 71 -10 458 -10 866 l0 738 108 -34 c325 -103 652
-121 965 -54 247 54 513 178 711 334 33 25 63 46 66 46 4 0 29 -17 56 -39z"/>
<path d="M2490 4343 c-19 -11 -73 -40 -120 -65 -174 -94 -410 -173 -640 -214
-72 -13 -159 -18 -360 -18 -257 -2 -267 -2 -297 -24 -63 -45 -63 -41 -63 -564
0 -486 7 -617 41 -820 135 -809 628 -1505 1359 -1919 83 -47 102 -54 150 -54
49 0 67 7 159 59 713 404 1202 1090 1344 1886 41 225 47 339 47 848 0 523 0
519 -63 564 -30 22 -40 22 -297 23 -228 1 -281 4 -382 23 -241 45 -474 128
-661 233 -107 61 -162 71 -217 42z m190 -364 c304 -149 607 -223 958 -236
l174 -6 -5 -436 c-3 -329 -8 -460 -20 -536 -89 -564 -337 -1047 -728 -1419
-152 -145 -451 -360 -499 -360 -23 0 -169 92 -293 185 -461 346 -792 875 -906
1446 -43 213 -51 332 -51 749 l0 371 173 6 c200 7 331 26 512 72 167 43 311
96 449 166 61 31 113 55 116 55 3 -1 57 -27 120 -57z"/>
<path d="M3130 3119 c-14 -6 -196 -181 -405 -389 l-380 -380 -170 170 c-181
181 -208 199 -279 186 -50 -9 -103 -59 -116 -107 -21 -79 -11 -93 247 -350
131 -130 248 -242 260 -248 30 -15 99 -14 131 3 15 8 226 214 469 458 380 381
443 449 452 484 17 64 -9 132 -62 164 -35 22 -105 26 -147 9z"/>
</g>
</svg>
